<svg width="535" height="900" viewBox="0 0 535 900" fill="none" xmlns="http://www.w3.org/2000/svg">
<path d="M116.234 195.119V734.885M116.234 195.119C116.234 98.9562 194.19 21 290.353 21C386.515 21 464.471 98.9553 464.471 195.118M116.234 195.119C116.234 291.282 38.2809 369.237 -57.8819 369.237C-154.045 369.237 -232 291.282 -232 195.119M98.8244 369.235H307.766M116.236 734.882C116.236 831.045 38.2809 909 -57.8819 909C-154.045 909 -232 831.045 -232 734.882C-232 638.719 -154.045 560.764 -57.8819 560.764C38.2809 560.764 116.236 638.719 116.236 734.882Z" stroke="url(#paint0_linear_84_423)" stroke-opacity="0.1" stroke-width="139.294"/>
<defs>
<linearGradient id="paint0_linear_84_423" x1="-471.727" y1="465.001" x2="528.075" y2="507.47" gradientUnits="userSpaceOnUse">
<stop stop-color="#D7E8F4"/>
<stop offset="0.384125" stop-color="#8491F7"/>
</linearGradient>
</defs>
</svg>
