<svg width="185" height="185" viewBox="0 0 185 185" fill="none" xmlns="http://www.w3.org/2000/svg">
<g filter="url(#filter0_d_85_574)">
<g clip-path="url(#clip0_85_574)">
<rect width="175.099" height="175.099" rx="24.48" fill="white"/>
<rect x="0.63052" y="0.63052" width="173.838" height="173.838" rx="23.8495" stroke="#8491F7" stroke-width="1.26104"/>
<path d="M19.1593 121.449V120.513H20.054V112.895H19.1593V111.959H22.6026C25.612 111.959 27.3607 113.939 27.3607 116.704C27.3607 119.646 25.612 121.449 22.6026 121.449H19.1593ZM21.1521 120.473H22.6026C24.8529 120.473 26.2356 119.09 26.2356 116.704C26.2356 114.413 24.88 112.949 22.6026 112.949H21.1521V120.473ZM32.3948 121.625C30.2801 121.625 28.7211 120.066 28.7211 117.924C28.7211 115.796 30.3072 114.223 32.4084 114.223C34.5367 114.223 36.082 115.809 36.082 117.924C36.082 120.039 34.5095 121.625 32.3948 121.625ZM32.3948 120.649C33.9131 120.649 34.984 119.497 34.984 117.924C34.984 116.365 33.9131 115.199 32.3948 115.199C30.8765 115.199 29.8191 116.379 29.8191 117.924C29.8191 119.51 30.8901 120.649 32.3948 120.649ZM41.3669 124.567V123.591H42.1531C42.8038 123.591 43.1156 123.319 43.3325 122.764L43.8341 121.449H43.5494L40.9602 114.4H42.1531L44.2137 120.418H44.295L46.4775 114.4H47.684L44.2543 123.238C43.9019 124.16 43.2512 124.567 42.1125 124.567H41.3669ZM52.3053 121.625C50.1905 121.625 48.6316 120.066 48.6316 117.924C48.6316 115.796 50.2176 114.223 52.3188 114.223C54.4471 114.223 55.9925 115.809 55.9925 117.924C55.9925 120.039 54.42 121.625 52.3053 121.625ZM52.3053 120.649C53.8235 120.649 54.8945 119.497 54.8945 117.924C54.8945 116.365 53.8235 115.199 52.3053 115.199C50.787 115.199 49.7296 116.379 49.7296 117.924C49.7296 119.51 50.8005 120.649 52.3053 120.649ZM60.379 121.625C58.7387 121.625 57.7491 120.391 57.7491 118.832V114.4H58.82V118.792C58.82 119.917 59.6469 120.649 60.6365 120.649C61.7481 120.649 62.6157 119.795 62.6157 118.629V114.4H63.6866V121.449H62.6157V120.418H62.5344C62.2361 121.056 61.477 121.625 60.379 121.625ZM69.7859 121.449V111.282H70.8568V115.43H70.9382C71.2364 114.793 72.0227 114.223 73.1207 114.223C74.761 114.223 75.7777 115.457 75.7777 117.016V121.449H74.7068V117.084C74.7068 115.959 73.8527 115.226 72.8631 115.226C71.7787 115.226 70.8568 116.026 70.8568 117.165V121.449H69.7859ZM80.9873 121.625C78.9675 121.625 77.5441 120.093 77.5441 117.938C77.5441 115.769 78.8997 114.223 80.906 114.223C82.3701 114.223 83.1021 115.172 83.3054 115.538H83.3868V114.4H84.4713V120.174C84.4713 120.391 84.6068 120.5 84.8237 120.5H85.1491V121.449H84.4577C83.8748 121.449 83.441 121.015 83.4274 120.405V120.337H83.3461C83.1699 120.622 82.5192 121.625 80.9873 121.625ZM81.0416 120.662C82.5192 120.662 83.4274 119.429 83.4274 117.951C83.4274 116.203 82.343 115.199 81.028 115.199C79.6453 115.199 78.6421 116.338 78.6421 117.951C78.6421 119.592 79.686 120.662 81.0416 120.662ZM88.9976 121.449L86.3677 114.4H87.52L89.6483 120.446H89.7296L91.8444 114.4H93.0238L90.4074 121.449H88.9976ZM97.4568 121.625C95.3149 121.625 93.9729 120.12 93.9729 117.951C93.9729 115.701 95.5183 114.223 97.389 114.223C99.5173 114.223 100.737 115.715 100.737 117.829V118.222H95.0709C95.0845 119.795 96.0063 120.676 97.4703 120.676C98.4599 120.676 99.3682 120.107 99.5987 119.131L100.642 119.375C100.249 120.69 99.0835 121.625 97.4568 121.625ZM95.098 117.355H99.6393C99.5715 115.891 98.5548 115.186 97.389 115.186C96.2367 115.186 95.1794 116.026 95.098 117.355ZM109.331 121.625C107.311 121.625 105.887 120.093 105.887 117.938C105.887 115.769 107.243 114.223 109.249 114.223C110.713 114.223 111.445 115.172 111.649 115.538H111.73V114.4H112.815V120.174C112.815 120.391 112.95 120.5 113.167 120.5H113.492V121.449H112.801C112.218 121.449 111.784 121.015 111.771 120.405V120.337H111.689C111.513 120.622 110.862 121.625 109.331 121.625ZM109.385 120.662C110.862 120.662 111.771 119.429 111.771 117.951C111.771 116.203 110.686 115.199 109.371 115.199C107.989 115.199 106.985 116.338 106.985 117.951C106.985 119.592 108.029 120.662 109.385 120.662ZM19.2949 140.567V130.4H20.3251V131.511H20.4065C20.5827 131.254 21.2469 130.223 22.7788 130.223C24.7851 130.223 26.222 131.755 26.222 133.911C26.222 136.093 24.8529 137.625 22.8601 137.625C21.3825 137.625 20.6776 136.744 20.4471 136.31H20.3658V140.567H19.2949ZM22.7381 136.649C24.1208 136.649 25.124 135.524 25.124 133.911C25.124 132.257 24.0666 131.199 22.711 131.199C21.2469 131.199 20.3251 132.433 20.3251 133.911C20.3251 135.646 21.4096 136.649 22.7381 136.649ZM28.1248 137.449V130.4H29.1822V131.579H29.2636C29.4669 130.982 30.1583 130.223 31.1885 130.223H31.6494V131.294H31.0123C29.7245 131.294 29.1958 132.338 29.1958 133.68V137.449H28.1248ZM36.2736 137.625C34.1589 137.625 32.5999 136.066 32.5999 133.924C32.5999 131.796 34.186 130.223 36.2872 130.223C38.4155 130.223 39.9609 131.809 39.9609 133.924C39.9609 136.039 38.3884 137.625 36.2736 137.625ZM36.2736 136.649C37.7919 136.649 38.8628 135.497 38.8628 133.924C38.8628 132.365 37.7919 131.199 36.2736 131.199C34.7554 131.199 33.698 132.379 33.698 133.924C33.698 135.51 34.7689 136.649 36.2736 136.649ZM43.4797 129.125C43.0324 129.125 42.707 128.786 42.707 128.339C42.707 127.905 43.0324 127.566 43.4797 127.566C43.9406 127.566 44.266 127.905 44.266 128.339C44.266 128.786 43.9406 129.125 43.4797 129.125ZM40.8363 140.567V139.618H41.8937C42.6393 139.618 42.951 139.306 42.951 138.547V131.308H41.4192V130.4H44.022V138.56C44.022 139.984 43.1679 140.567 41.8801 140.567H40.8363ZM49.5075 137.625C47.3657 137.625 46.0236 136.12 46.0236 133.951C46.0236 131.701 47.569 130.223 49.4397 130.223C51.568 130.223 52.7881 131.715 52.7881 133.829V134.222H47.1217C47.1352 135.795 48.057 136.676 49.5211 136.676C50.5107 136.676 51.4189 136.107 51.6494 135.131L52.6932 135.375C52.3001 136.69 51.1343 137.625 49.5075 137.625ZM47.1488 133.355H51.6901C51.6223 131.891 50.6056 131.186 49.4397 131.186C48.2875 131.186 47.2301 132.026 47.1488 133.355ZM57.7582 137.625C55.6299 137.625 54.1387 136.012 54.1387 133.924C54.1387 131.837 55.6706 130.223 57.7446 130.223C59.2765 130.223 60.6321 131.145 61.0116 132.718L59.9543 132.962C59.7645 131.904 58.8698 131.199 57.7717 131.199C56.267 131.199 55.2503 132.392 55.2503 133.924C55.2503 135.51 56.3212 136.649 57.7989 136.649C58.8969 136.649 59.7916 135.944 59.9814 134.887L61.0388 135.131C60.6592 136.703 59.29 137.625 57.7582 137.625ZM65.7342 137.449C64.4464 137.449 63.5924 136.866 63.5924 135.442V131.308H62.2639V130.4H63.6602V128.353H64.6633V130.4H66.8323V131.308H64.6633V135.429C64.6633 136.188 64.9751 136.513 65.7207 136.513H66.7374V137.449H65.7342ZM74.0429 129.125C73.5956 129.125 73.2702 128.786 73.2702 128.339C73.2702 127.905 73.5956 127.566 74.0429 127.566C74.5038 127.566 74.8292 127.905 74.8292 128.339C74.8292 128.786 74.5038 129.125 74.0429 129.125ZM73.5143 137.449V131.308H72.1858V130.4H74.5852V137.449H73.5143ZM77.2656 137.449V130.4H78.3365V131.43H78.4178C78.7161 130.793 79.4752 130.223 80.5733 130.223C82.2135 130.223 83.2031 131.457 83.2031 133.016V137.449H82.1322V133.084C82.1322 131.959 81.3053 131.226 80.3157 131.226C79.2041 131.226 78.3365 132.081 78.3365 133.246V137.449H77.2656ZM89.3125 137.449V130.4H90.3834V131.416H90.4647C90.8036 130.766 91.4814 130.223 92.5253 130.223C93.5826 130.223 94.3553 130.738 94.7484 131.511H94.8433C95.3178 130.603 96.0905 130.223 97.0801 130.223C98.6526 130.223 99.6693 131.335 99.6693 132.88V137.449H98.5984V133.233C98.5984 131.904 97.9341 131.226 96.8903 131.226C95.9007 131.226 95.0331 131.931 95.0331 133.246V137.449H93.9622V133.029C93.9622 131.904 93.2031 131.226 92.2135 131.226C91.2239 131.226 90.3834 132.013 90.3834 133.206V137.449H89.3125ZM103.419 129.125C102.971 129.125 102.646 128.786 102.646 128.339C102.646 127.905 102.971 127.566 103.419 127.566C103.88 127.566 104.205 127.905 104.205 128.339C104.205 128.786 103.88 129.125 103.419 129.125ZM102.89 137.449V131.308H101.562V130.4H103.961V137.449H102.89ZM106.641 137.449V130.4H107.712V131.43H107.794C108.092 130.793 108.851 130.223 109.949 130.223C111.589 130.223 112.579 131.457 112.579 133.016V137.449H111.508V133.084C111.508 131.959 110.681 131.226 109.692 131.226C108.58 131.226 107.712 132.081 107.712 133.246V137.449H106.641ZM117.79 137.625C115.784 137.625 114.347 136.093 114.347 133.938C114.347 131.769 115.716 130.223 117.709 130.223C119.186 130.223 119.905 131.172 120.122 131.538H120.203V127.282H121.274V137.449H120.244V136.337H120.162C119.986 136.595 119.322 137.625 117.79 137.625ZM117.858 136.662C119.322 136.662 120.244 135.415 120.244 133.951C120.244 132.203 119.159 131.199 117.831 131.199C116.448 131.199 115.445 132.338 115.445 133.951C115.445 135.592 116.489 136.662 117.858 136.662ZM125.268 135.063V133.748C125.268 132.975 125.539 132.636 126.095 132.243L126.759 131.782C127.315 131.389 127.64 131.077 127.64 130.359C127.64 129.451 127.044 128.759 126.013 128.759C124.956 128.759 124.305 129.505 124.305 130.467H123.302C123.302 129.152 124.197 127.783 126.013 127.783C127.694 127.783 128.752 128.936 128.752 130.318C128.752 131.471 128.142 132.013 127.559 132.419L126.759 132.975C126.434 133.192 126.325 133.355 126.325 133.748V135.063H125.268ZM125.824 137.625C125.403 137.625 125.051 137.286 125.051 136.866C125.051 136.446 125.403 136.107 125.824 136.107C126.244 136.107 126.583 136.446 126.583 136.866C126.583 137.286 126.244 137.625 125.824 137.625ZM19.4304 153.449V143.959H20.5285V152.459H24.6224V153.449H19.4304ZM29.1999 153.625C27.058 153.625 25.716 152.12 25.716 149.951C25.716 147.701 27.2614 146.223 29.1321 146.223C31.2604 146.223 32.4805 147.715 32.4805 149.829V150.222H26.814C26.8276 151.795 27.7494 152.676 29.2135 152.676C30.2031 152.676 31.1113 152.107 31.3418 151.131L32.3856 151.375C31.9925 152.69 30.8266 153.625 29.1999 153.625ZM26.8412 149.355H31.3824C31.3147 147.891 30.2979 147.186 29.1321 147.186C27.9799 147.186 26.9225 148.026 26.8412 149.355ZM37.1659 153.449C35.8781 153.449 35.024 152.866 35.024 151.442V147.308H33.6955V146.4H35.0918V144.353H36.095V146.4H38.2639V147.308H36.095V151.429C36.095 152.188 36.4068 152.513 37.1523 152.513H38.169V153.449H37.1659ZM42.5563 153.625C40.9703 153.625 39.9807 152.757 39.818 151.497L40.794 151.253C40.8754 152.202 41.5396 152.69 42.6106 152.69C43.6679 152.69 44.2508 152.174 44.2508 151.456C44.2508 149.477 40.0349 150.982 40.0349 148.189C40.0349 146.996 41.1058 146.223 42.5834 146.223C43.8035 146.223 44.9829 146.928 45.1455 148.203L44.2102 148.474C44.1153 147.647 43.4375 147.145 42.5157 147.145C41.6345 147.145 41.0652 147.579 41.0652 148.189C41.0652 149.978 45.2947 148.487 45.2947 151.402C45.2947 152.73 44.1966 153.625 42.5563 153.625ZM54.2765 153.625C52.1482 153.625 50.657 152.012 50.657 149.924C50.657 147.837 52.1889 146.223 54.2629 146.223C55.7948 146.223 57.1504 147.145 57.53 148.718L56.4726 148.962C56.2828 147.904 55.3881 147.199 54.2901 147.199C52.7853 147.199 51.7686 148.392 51.7686 149.924C51.7686 151.51 52.8396 152.649 54.3172 152.649C55.4152 152.649 56.3099 151.944 56.4997 150.887L57.5571 151.131C57.1775 152.703 55.8083 153.625 54.2765 153.625ZM62.5915 153.625C60.4767 153.625 58.9178 152.066 58.9178 149.924C58.9178 147.796 60.5038 146.223 62.605 146.223C64.7333 146.223 66.2787 147.809 66.2787 149.924C66.2787 152.039 64.7062 153.625 62.5915 153.625ZM62.5915 152.649C64.1097 152.649 65.1807 151.497 65.1807 149.924C65.1807 148.365 64.1097 147.199 62.5915 147.199C61.0732 147.199 60.0158 148.379 60.0158 149.924C60.0158 151.51 61.0867 152.649 62.5915 152.649ZM68.1708 153.449V146.4H69.2418V147.43H69.3231C69.6213 146.793 70.3805 146.223 71.4785 146.223C73.1188 146.223 74.1084 147.457 74.1084 149.016V153.449H73.0375V149.084C73.0375 147.959 72.2105 147.226 71.2209 147.226C70.1093 147.226 69.2418 148.081 69.2418 149.246V153.449H68.1708ZM76.4183 153.449V146.4H77.4892V147.43H77.5706C77.8688 146.793 78.628 146.223 79.726 146.223C81.3663 146.223 82.3559 147.457 82.3559 149.016V153.449H81.2849V149.084C81.2849 147.959 80.458 147.226 79.4684 147.226C78.3568 147.226 77.4892 148.081 77.4892 149.246V153.449H76.4183ZM87.6075 153.625C85.4656 153.625 84.1236 152.12 84.1236 149.951C84.1236 147.701 85.669 146.223 87.5397 146.223C89.668 146.223 90.888 147.715 90.888 149.829V150.222H85.2216C85.2352 151.795 86.157 152.676 87.621 152.676C88.6106 152.676 89.5189 152.107 89.7493 151.131L90.7931 151.375C90.4 152.69 89.2342 153.625 87.6075 153.625ZM85.2487 149.355H89.79C89.7222 147.891 88.7055 147.186 87.5397 147.186C86.3874 147.186 85.3301 148.026 85.2487 149.355ZM95.8581 153.625C93.7298 153.625 92.2387 152.012 92.2387 149.924C92.2387 147.837 93.7705 146.223 95.8446 146.223C97.3764 146.223 98.732 147.145 99.1116 148.718L98.0542 148.962C97.8644 147.904 96.9697 147.199 95.8717 147.199C94.367 147.199 93.3503 148.392 93.3503 149.924C93.3503 151.51 94.4212 152.649 95.8988 152.649C96.9968 152.649 97.8915 151.944 98.0813 150.887L99.1387 151.131C98.7591 152.703 97.39 153.625 95.8581 153.625ZM103.834 153.449C102.546 153.449 101.692 152.866 101.692 151.442V147.308H100.364V146.4H101.76V144.353H102.763V146.4H104.932V147.308H102.763V151.429C102.763 152.188 103.075 152.513 103.821 152.513H104.837V153.449H103.834ZM107.327 151.063L107.232 143.959H108.357L108.262 151.063H107.327ZM107.801 153.625C107.381 153.625 107.029 153.286 107.029 152.866C107.029 152.446 107.381 152.107 107.801 152.107C108.221 152.107 108.56 152.446 108.56 152.866C108.56 153.286 108.221 153.625 107.801 153.625Z" fill="#8491F7"/>
<path d="M19.0351 99.1143V91.2066H21.4187L23.0002 97.7812H23.1019L24.6834 91.2066H27.0557V99.1143H25.734V92.5509H25.6323L24.0621 99.1143H22.04L20.4697 92.5509H20.3681V99.1143H19.0351ZM31.4827 99.2611C29.6752 99.2611 28.4665 97.9733 28.4665 96.1658C28.4665 94.3019 29.8334 93.0479 31.4262 93.0479C33.2337 93.0479 34.3295 94.3583 34.3295 96.1206V96.4934H29.8447C29.856 97.4875 30.4999 98.1201 31.4714 98.1201C32.1266 98.1201 32.7479 97.7812 32.9626 97.126L34.1826 97.4198C33.7985 98.6511 32.7141 99.2611 31.4827 99.2611ZM29.856 95.5219H32.9739C32.9061 94.7198 32.2396 94.2115 31.4262 94.2115C30.579 94.2115 29.9351 94.8102 29.856 95.5219ZM37.6353 99.2611C36.3474 99.2611 35.3872 98.6398 35.2291 97.431L36.4943 97.1486C36.6186 97.7699 37.0478 98.0637 37.6692 98.0637C38.3131 98.0637 38.652 97.8264 38.652 97.431C38.652 96.2336 35.4437 97.239 35.4437 94.8328C35.4437 93.8274 36.2797 93.0479 37.624 93.0479C38.7649 93.0479 39.6574 93.6241 39.872 94.6859L38.6859 95.0135C38.5729 94.4939 38.1888 94.2567 37.624 94.2567C37.0591 94.2567 36.7202 94.5052 36.7202 94.8554C36.7202 95.9625 40.0189 94.9232 40.0189 97.3068C40.0189 98.4703 39.0925 99.2611 37.6353 99.2611ZM43.3829 99.2611C42.0951 99.2611 41.1349 98.6398 40.9767 97.431L42.2419 97.1486C42.3662 97.7699 42.7955 98.0637 43.4168 98.0637C44.0607 98.0637 44.3996 97.8264 44.3996 97.431C44.3996 96.2336 41.1914 97.239 41.1914 94.8328C41.1914 93.8274 42.0273 93.0479 43.3716 93.0479C44.5126 93.0479 45.405 93.6241 45.6197 94.6859L44.4335 95.0135C44.3205 94.4939 43.9365 94.2567 43.3716 94.2567C42.8068 94.2567 42.4679 94.5052 42.4679 94.8554C42.4679 95.9625 45.7665 94.9232 45.7665 97.3068C45.7665 98.4703 44.8402 99.2611 43.3829 99.2611ZM49.5147 99.2611C47.9218 99.2611 46.7244 97.9507 46.7244 96.1545C46.7244 94.3583 47.8992 93.0479 49.4808 93.0479C50.4749 93.0479 51.0171 93.5563 51.2769 93.9178H51.3786V93.1948H52.7116V97.7248C52.7116 97.8829 52.802 97.9846 52.9827 97.9846H53.2426V99.1143H52.2372C51.7062 99.1143 51.4351 98.7528 51.3899 98.3687H51.2882C51.0623 98.7302 50.5427 99.2611 49.5147 99.2611ZM49.7519 97.9733C50.7573 97.9733 51.4012 97.1712 51.4012 96.1658C51.4012 94.991 50.6443 94.3244 49.7406 94.3244C48.7917 94.3244 48.08 95.07 48.08 96.1658C48.08 97.2842 48.8143 97.9733 49.7519 97.9733ZM55.551 101.713V100.481H58.1718C58.5785 100.481 58.748 100.278 58.748 99.8485V98.4026H58.6463C58.3865 98.7754 57.8781 99.2611 56.8727 99.2611C55.2912 99.2611 54.0937 97.9507 54.0937 96.1432C54.0937 94.3809 55.2686 93.0479 56.8614 93.0479C57.9346 93.0479 58.4203 93.6466 58.6689 93.9404H58.7705V93.1948H60.081V99.9389C60.081 101.182 59.2902 101.713 58.1831 101.713H55.551ZM57.1099 98.0072C58.0589 98.0072 58.7818 97.2616 58.7818 96.1545C58.7818 95.0813 58.0927 94.3019 57.1212 94.3019C56.1836 94.3019 55.4493 95.0361 55.4493 96.1545C55.4493 97.2503 56.1723 98.0072 57.1099 98.0072ZM64.391 99.2611C62.5835 99.2611 61.3748 97.9733 61.3748 96.1658C61.3748 94.3019 62.7417 93.0479 64.3345 93.0479C66.142 93.0479 67.2378 94.3583 67.2378 96.1206V96.4934H62.753C62.7643 97.4875 63.4082 98.1201 64.3797 98.1201C65.0349 98.1201 65.6562 97.7812 65.8709 97.126L67.0909 97.4198C66.7068 98.6511 65.6224 99.2611 64.391 99.2611ZM62.7643 95.5219H65.8822C65.8144 94.7198 65.1479 94.2115 64.3345 94.2115C63.4873 94.2115 62.8434 94.8102 62.7643 95.5219Z" fill="#8491F7"/>
<path d="M151.504 22.4109L128.99 28.7521C128.798 28.8045 128.627 28.9147 128.501 29.0677C128.374 29.2207 128.297 29.409 128.281 29.6071C128.266 29.8051 128.311 30.0032 128.412 30.1744C128.513 30.3456 128.664 30.4816 128.845 30.5638L139.184 35.4555C139.386 35.5493 139.549 35.712 139.643 35.9145L144.535 46.2536C144.617 46.4345 144.753 46.5856 144.924 46.6864C145.095 46.7873 145.293 46.8329 145.491 46.817C145.689 46.8012 145.878 46.7247 146.031 46.5979C146.184 46.4711 146.294 46.3003 146.346 46.1086L152.687 23.5946C152.736 23.4303 152.739 23.2561 152.696 23.0903C152.654 22.9244 152.567 22.7731 152.446 22.652C152.325 22.531 152.174 22.4447 152.008 22.4023C151.842 22.3599 151.668 22.3629 151.504 22.4109V22.4109Z" stroke="#8491F7" stroke-width="2.8988" stroke-linecap="round" stroke-linejoin="round"/>
<path d="M139.498 35.6005L144.958 30.1411" stroke="#8491F7" stroke-width="2.8988" stroke-linecap="round" stroke-linejoin="round"/>
</g>
</g>
<defs>
<filter id="filter0_d_85_574" x="0" y="0" width="184.099" height="184.099" filterUnits="userSpaceOnUse" color-interpolation-filters="sRGB">
<feFlood flood-opacity="0" result="BackgroundImageFix"/>
<feColorMatrix in="SourceAlpha" type="matrix" values="0 0 0 0 0 0 0 0 0 0 0 0 0 0 0 0 0 0 127 0" result="hardAlpha"/>
<feOffset dx="5" dy="5"/>
<feGaussianBlur stdDeviation="2"/>
<feComposite in2="hardAlpha" operator="out"/>
<feColorMatrix type="matrix" values="0 0 0 0 0.517647 0 0 0 0 0.568627 0 0 0 0 0.968627 0 0 0 0.4 0"/>
<feBlend mode="normal" in2="BackgroundImageFix" result="effect1_dropShadow_85_574"/>
<feBlend mode="normal" in="SourceGraphic" in2="effect1_dropShadow_85_574" result="shape"/>
</filter>
<clipPath id="clip0_85_574">
<rect width="175.099" height="175.099" rx="24.48" fill="white"/>
</clipPath>
</defs>
</svg>
