<svg width="1440" height="900" viewBox="0 0 1440 900" fill="none" xmlns="http://www.w3.org/2000/svg">
<g clip-path="url(#clip0_78_117)">
<rect width="1440" height="900" fill="white"/>
<path d="M116.234 195.119V734.885M116.234 195.119C116.234 98.9562 194.19 21 290.353 21C386.515 21 464.471 98.9553 464.471 195.118M116.234 195.119C116.234 291.282 38.2809 369.237 -57.8819 369.237C-154.045 369.237 -232 291.282 -232 195.119M98.8244 369.235H307.766M116.236 734.882C116.236 831.045 38.2809 909 -57.8819 909C-154.045 909 -232 831.045 -232 734.882C-232 638.719 -154.045 560.764 -57.8819 560.764C38.2809 560.764 116.236 638.719 116.236 734.882Z" stroke="url(#paint0_linear_78_117)" stroke-opacity="0.1" stroke-width="139.294"/>
<line x1="186" y1="557.75" x2="1640" y2="557.786" stroke="#8491F7" stroke-opacity="0.8" stroke-width="0.5"/>
<line x1="186" y1="788.75" x2="1631" y2="788.786" stroke="#8491F7" stroke-opacity="0.8" stroke-width="0.5"/>
<line x1="186" y1="824.749" x2="1640" y2="824.786" stroke="#8491F7" stroke-opacity="0.8" stroke-width="0.501555"/>
<path d="M1166.47 129.05V123.817H1169.5C1170.6 123.817 1171.23 123.463 1171.66 122.361L1172.56 120H1171.46L1164.54 99.2626H1170.75L1174.96 114.491H1175.4L1179.61 99.2626H1185.9L1176.81 124.84C1175.75 127.791 1173.59 129.05 1169.89 129.05H1166.47ZM1196.79 120.512C1190.3 120.512 1185.74 115.79 1185.74 109.651C1185.74 103.473 1190.34 98.751 1196.79 98.751C1203.29 98.751 1207.81 103.512 1207.81 109.651C1207.81 115.79 1203.25 120.512 1196.79 120.512ZM1196.79 115.042C1199.86 115.042 1201.99 112.72 1201.99 109.651C1201.99 106.542 1199.86 104.221 1196.79 104.221C1193.72 104.221 1191.56 106.542 1191.56 109.651C1191.56 112.72 1193.72 115.042 1196.79 115.042ZM1216.86 120.512C1212.49 120.512 1209.58 117.246 1209.58 113.192V99.2626H1215.32V111.343C1215.32 113.429 1216.74 114.963 1218.74 114.963C1220.83 114.963 1222.29 113.389 1222.29 111.304V99.2626H1228.03V120H1222.29V118.111H1221.89C1220.95 119.449 1219.26 120.512 1216.86 120.512ZM1230.8 120V99.2626H1236.47V102.017H1236.86C1237.76 100.246 1239.81 98.751 1242.17 98.751H1243.82V104.457H1241.7C1238.55 104.457 1236.5 106.424 1236.5 110.281V120H1230.8ZM1134.31 158.512C1128.96 158.512 1124.63 153.829 1124.63 147.612C1124.63 141.552 1128.64 136.751 1134 136.751C1137.18 136.751 1138.91 138.168 1139.9 139.387H1140.33V128.488H1146.08V158H1140.33V156.072H1139.9C1138.91 157.37 1137.26 158.512 1134.31 158.512ZM1135.45 153.081C1138.44 153.081 1140.41 150.563 1140.41 147.651C1140.41 144.228 1138.13 142.221 1135.41 142.221C1132.62 142.221 1130.45 144.385 1130.45 147.651C1130.45 150.917 1132.7 153.081 1135.45 153.081ZM1158.58 158.512C1152.25 158.512 1147.84 153.908 1147.84 147.651C1147.84 141.158 1152.64 136.751 1158.43 136.751C1164.8 136.751 1168.78 141.473 1168.78 147.612V149.068H1153.74C1153.78 151.783 1155.79 153.435 1158.51 153.435C1160.4 153.435 1162.21 152.688 1162.99 150.956L1168.11 152.137C1166.61 156.78 1162.6 158.512 1158.58 158.512ZM1153.78 145.251H1162.99C1162.72 143.165 1160.87 141.512 1158.43 141.512C1155.75 141.512 1154.06 143.401 1153.78 145.251ZM1178.64 158.512C1174.23 158.512 1170.53 156.387 1169.94 151.783L1174.98 150.878C1175.21 152.806 1176.94 153.672 1178.91 153.672C1180.64 153.672 1181.51 153.003 1181.51 152.019C1181.51 148.595 1170.65 151.468 1170.65 143.204C1170.65 139.624 1173.95 136.751 1178.56 136.751C1182.89 136.751 1185.92 138.719 1186.82 142.457L1181.86 143.795C1181.43 142.339 1180.17 141.473 1178.64 141.473C1177.26 141.473 1176.31 142.063 1176.31 142.968C1176.31 146.195 1187.29 143.519 1187.29 151.468C1187.29 155.639 1184.03 158.512 1178.64 158.512ZM1195.04 134.508C1193.07 134.508 1191.61 133.052 1191.61 131.163C1191.61 129.314 1193.07 127.858 1195.04 127.858C1196.96 127.858 1198.42 129.314 1198.42 131.163C1198.42 133.052 1196.96 134.508 1195.04 134.508ZM1192.08 158V142.339H1188.66V137.263H1197.79V158H1192.08ZM1205.53 167.05V161.778H1214.78C1215.72 161.778 1216.08 161.305 1216.08 160.361V156.072H1215.65C1214.54 157.41 1212.97 158.512 1210.06 158.512C1204.71 158.512 1200.38 153.829 1200.38 147.612C1200.38 141.552 1204.43 136.751 1209.78 136.751C1213.05 136.751 1214.58 138.207 1215.68 139.387H1216.12V137.263H1221.82V160.636C1221.82 165.162 1219.07 167.05 1214.9 167.05H1205.53ZM1211.2 153.081C1214.15 153.081 1216.16 150.642 1216.16 147.612C1216.16 144.306 1213.95 142.221 1211.2 142.221C1208.44 142.221 1206.24 144.385 1206.24 147.612C1206.24 150.878 1208.44 153.081 1211.2 153.081ZM1224.57 158V137.263H1230.32V139.151H1230.71C1231.66 137.813 1233.35 136.751 1235.75 136.751C1240.12 136.751 1243.03 140.017 1243.03 144.07V158H1237.28V145.92C1237.28 143.834 1235.87 142.299 1233.86 142.299C1231.77 142.299 1230.32 143.873 1230.32 145.959V158H1224.57ZM1186.66 165.11C1188.7 165.11 1190.08 165.858 1190.71 166.488L1188.43 169.793H1188.23C1187.6 168.77 1185.99 166.055 1184.22 166.055C1182.33 166.055 1181.03 167.825 1180.4 170.934L1179.02 177.545L1178.98 177.702H1184.53L1184.14 179.276H1178.63L1174.85 195.961C1173.79 200.604 1169.74 205.995 1165.72 205.995C1164.23 205.995 1162.69 205.365 1162.18 204.814L1163.79 202.414H1163.99C1164.9 204.263 1166.04 205.05 1167.14 205.05C1168.56 205.05 1169.85 203.634 1170.37 201.391L1175.28 179.276H1171.15L1171.55 177.702H1175.64L1176.31 174.515C1177.76 167.471 1183.15 165.11 1186.66 165.11ZM1183.17 196.748L1182.98 196.512L1187.19 180.968C1187.89 178.332 1185.38 178.529 1183.13 181.086L1182.86 180.811C1184.39 178.686 1186.36 177.112 1188.25 177.112C1190.18 177.112 1190.73 178.371 1190.73 179.512C1190.73 180.103 1190.53 180.929 1190.18 182.031L1188.21 188.484H1188.37C1190.45 183.959 1193.8 177.112 1197.69 177.112C1198.91 177.112 1199.86 177.781 1200.37 178.293L1198.05 181.322H1197.81C1197.26 180.024 1196.47 179.63 1195.69 179.63C1192.73 179.63 1187.93 189.153 1186.24 196C1185.1 196.039 1184.24 196.354 1183.17 196.748ZM1212.17 180.063C1212.17 183.683 1207.18 186.281 1200.92 186.635C1200.76 187.422 1200.68 188.248 1200.68 189.114C1200.68 192.616 1202.06 194.465 1203.99 194.465C1205.56 194.465 1207.49 193.246 1209.3 190.806L1209.62 191.042C1208.83 192.734 1206.04 196.59 1202.22 196.59C1198.68 196.59 1196.95 193.521 1196.95 190.609C1196.95 183.762 1201.55 177.112 1208.12 177.112C1210.44 177.112 1212.17 178.411 1212.17 180.063ZM1207.65 177.624C1205.76 177.624 1202.02 181.126 1200.96 186.281C1205.92 185.572 1208.75 182.778 1208.75 179.04C1208.75 178.096 1208.32 177.624 1207.65 177.624ZM1212.53 181.086L1212.26 180.811C1213.79 178.686 1215.76 177.112 1217.65 177.112C1219.42 177.112 1220.09 178.017 1220.09 179.394C1220.09 180.142 1219.89 181.047 1219.58 182.031L1217.69 188.051H1217.89C1221.7 180.654 1224.85 177.112 1227.84 177.112C1229.38 177.112 1230.6 177.899 1230.6 179.709C1230.6 180.221 1230.52 180.772 1230.32 181.441L1226.9 192.852C1226.66 193.6 1226.7 194.269 1227.37 194.269C1228.12 194.269 1229.57 193.324 1230.99 191.672L1231.34 191.986C1230.04 194.151 1227.37 196.59 1225.48 196.59C1223.39 196.59 1222.92 194.741 1223.63 192.459L1226.94 181.716C1227.45 180.063 1227.09 179.276 1226.15 179.276C1223.95 179.276 1218.32 185.218 1215.64 196C1214.5 196.039 1213.64 196.354 1212.57 196.748L1212.38 196.512L1216.59 180.968C1217.3 178.332 1214.78 178.529 1212.53 181.086ZM1242.7 190.255C1242.7 194.347 1240.1 196.59 1235.65 196.59C1233.17 196.59 1231.05 195.449 1230.34 194.938L1232.19 192.38H1232.39C1234.31 193.914 1237.27 194.898 1239.19 194.898C1240.45 194.898 1241.4 194.111 1241.4 193.049C1241.4 191.475 1239.47 189.35 1237.15 187.618C1234.83 185.887 1233.57 184.667 1233.57 182.739C1233.57 179.434 1235.81 177.112 1239.9 177.112C1242.18 177.112 1244.11 178.017 1244.78 178.45L1242.93 181.008H1242.74C1241.04 179.552 1238.41 178.843 1236.64 178.843C1235.5 178.843 1234.71 179.473 1234.71 180.339C1234.71 181.559 1237.46 183.683 1239.27 185.021C1241.75 186.871 1242.7 188.563 1242.7 190.255Z" fill="url(#paint1_linear_78_117)"/>
<path d="M1310.06 112.021V175.979M1310.06 112.021C1310.06 100.627 1319.29 91.3896 1330.69 91.3896C1342.08 91.3896 1351.32 100.627 1351.32 112.021M1310.06 112.021C1310.06 123.416 1300.82 132.653 1289.42 132.653C1278.03 132.653 1268.79 123.416 1268.79 112.021M1307.99 132.652H1332.75M1310.06 175.978C1310.06 187.373 1300.82 196.61 1289.42 196.61C1278.03 196.61 1268.79 187.373 1268.79 175.978C1268.79 164.584 1278.03 155.347 1289.42 155.347C1300.82 155.347 1310.06 164.584 1310.06 175.978Z" stroke="url(#paint2_linear_78_117)" stroke-width="16.5052"/>
<path d="M897.832 795.917C897.832 797.632 896.057 798.866 895.214 802.566H894.913C895.425 799.708 894.703 797.542 894.943 796.459C895.154 795.466 895.695 794.955 896.688 794.955C897.531 794.955 897.832 795.346 897.832 795.917ZM902.344 795.917C902.344 797.632 900.569 798.866 899.727 802.566H899.426C899.938 799.708 899.215 797.542 899.456 796.459C899.667 795.466 900.208 794.955 901.201 794.955C902.043 794.955 902.344 795.346 902.344 795.917ZM918.71 794.383C920.274 794.383 921.327 794.955 921.809 795.436L920.064 797.963H919.913C919.432 797.181 918.198 795.105 916.845 795.105C915.4 795.105 914.408 796.459 913.926 798.836L912.873 803.89L912.843 804.01H917.085L916.784 805.214H912.572L909.684 817.97C908.872 821.52 905.773 825.642 902.704 825.642C901.561 825.642 900.388 825.16 899.997 824.739L901.23 822.904H901.381C902.073 824.318 902.945 824.92 903.787 824.92C904.871 824.92 905.863 823.837 906.254 822.122L910.015 805.214H906.856L907.157 804.01H910.286L910.797 801.573C911.911 796.188 916.032 794.383 918.71 794.383ZM915.144 818.572L914.993 818.391L918.212 806.507C918.754 804.492 916.829 804.642 915.114 806.598L914.903 806.387C916.076 804.762 917.581 803.559 919.025 803.559C920.499 803.559 920.92 804.522 920.92 805.394C920.92 805.846 920.77 806.477 920.499 807.32L918.995 812.254H919.115C920.71 808.794 923.267 803.559 926.245 803.559C927.178 803.559 927.9 804.07 928.291 804.462L926.516 806.778H926.336C925.914 805.785 925.313 805.485 924.711 805.485C922.454 805.485 918.784 812.765 917.49 818C916.618 818.03 915.956 818.271 915.144 818.572ZM933.535 798.053C933.324 798.956 932.421 799.828 931.308 799.828C930.045 799.828 929.834 798.775 930.015 798.053C930.195 797.271 931.007 796.248 932.211 796.248C933.444 796.248 933.745 797.181 933.535 798.053ZM928.209 818.451C926.555 818.451 926.284 816.947 926.795 815.292L929.503 806.507C930.135 804.492 928.119 804.642 926.404 806.598L926.194 806.387C927.367 804.762 928.871 803.559 930.315 803.559C931.79 803.559 932.211 804.522 932.211 805.394C932.211 805.846 932.03 806.477 931.79 807.32L929.293 815.593C929.112 816.165 929.142 816.676 929.654 816.676C930.225 816.676 931.338 815.954 932.421 814.691L932.692 814.961C931.699 816.586 929.654 818.451 928.209 818.451ZM944.004 805.815C944.004 808.583 940.183 810.569 935.4 810.84C935.279 811.441 935.219 812.073 935.219 812.735C935.219 815.413 936.272 816.827 937.746 816.827C938.95 816.827 940.424 815.894 941.808 814.029L942.049 814.209C941.447 815.503 939.311 818.451 936.392 818.451C933.685 818.451 932.361 816.105 932.361 813.878C932.361 808.643 935.881 803.559 940.905 803.559C942.68 803.559 944.004 804.552 944.004 805.815ZM940.544 803.95C939.1 803.95 936.242 806.628 935.43 810.569C939.22 810.027 941.387 807.891 941.387 805.033C941.387 804.311 941.056 803.95 940.544 803.95ZM943.376 806.598L943.166 806.387C944.339 804.762 945.843 803.559 947.287 803.559C948.641 803.559 949.153 804.251 949.153 805.304C949.153 805.876 949.002 806.568 948.762 807.32L947.317 811.923H947.468C950.386 806.267 952.793 803.559 955.079 803.559C956.253 803.559 957.185 804.161 957.185 805.545C957.185 805.936 957.125 806.357 956.975 806.868L954.357 815.593C954.177 816.165 954.207 816.676 954.718 816.676C955.29 816.676 956.403 815.954 957.486 814.691L957.757 814.931C956.764 816.586 954.718 818.451 953.274 818.451C951.68 818.451 951.319 817.037 951.86 815.292L954.387 807.079C954.779 805.815 954.508 805.214 953.786 805.214C952.101 805.214 947.799 809.757 945.753 818C944.881 818.03 944.219 818.271 943.406 818.572L943.256 818.391L946.475 806.507C947.017 804.492 945.091 804.642 943.376 806.598ZM959.548 818.451C957.923 818.451 957.141 816.947 957.141 814.931C957.141 809.696 961.112 803.559 966.167 803.559C966.919 803.559 968.062 803.77 968.754 804.01L970.83 795.887H968.062L968.122 795.586C970.078 795.376 971.943 794.985 973.568 794.383H973.718L968.483 815.774C968.423 815.954 968.423 816.135 968.423 816.255C968.423 816.556 968.543 816.676 968.814 816.676C969.506 816.676 970.74 815.774 971.642 814.721L971.913 814.961C970.98 816.586 968.965 818.451 967.46 818.451C966.377 818.451 965.866 817.819 965.866 816.736C965.866 816.315 965.926 815.834 966.076 815.292L967.49 809.907H967.34C966.227 812.555 963.008 818.451 959.548 818.451ZM961.263 816.797C963.278 816.797 966.798 810.96 967.881 807.229L968.393 805.454C967.581 804.371 966.618 803.98 965.535 803.98C962.496 803.98 959.999 809.546 959.999 814.209C959.999 816.044 960.511 816.797 961.263 816.797ZM979.764 813.608C979.764 816.736 977.779 818.451 974.379 818.451C972.484 818.451 970.859 817.579 970.317 817.188L971.731 815.232H971.882C973.356 816.405 975.612 817.158 977.087 817.158C978.049 817.158 978.771 816.556 978.771 815.744C978.771 814.54 977.297 812.916 975.522 811.592C973.747 810.268 972.784 809.335 972.784 807.861C972.784 805.334 974.499 803.559 977.628 803.559C979.373 803.559 980.847 804.251 981.359 804.582L979.945 806.537H979.794C978.501 805.424 976.485 804.883 975.131 804.883C974.259 804.883 973.657 805.364 973.657 806.026C973.657 806.959 975.763 808.583 977.147 809.606C979.042 811.02 979.764 812.314 979.764 813.608ZM988.453 818V802.356H990.83V804.612H991.011C991.763 803.168 993.267 801.965 995.583 801.965C997.93 801.965 999.645 803.108 1000.52 804.823H1000.73C1001.78 802.807 1003.5 801.965 1005.69 801.965C1009.18 801.965 1011.44 804.432 1011.44 807.861V818H1009.06V808.643C1009.06 805.695 1007.59 804.191 1005.27 804.191C1003.07 804.191 1001.15 805.755 1001.15 808.674V818H998.773V808.192C998.773 805.695 997.088 804.191 994.892 804.191C992.695 804.191 990.83 805.936 990.83 808.583V818H988.453ZM1020.87 818.391C1016.39 818.391 1013.23 814.991 1013.23 810.208C1013.23 805.394 1016.24 801.965 1020.69 801.965C1023.94 801.965 1025.57 804.07 1026.02 804.883H1026.2V802.356H1028.6V815.172C1028.6 815.653 1028.91 815.894 1029.39 815.894H1030.11V818H1028.57C1027.28 818 1026.32 817.037 1026.29 815.683V815.533H1026.11C1025.72 816.165 1024.27 818.391 1020.87 818.391ZM1020.99 816.255C1024.27 816.255 1026.29 813.517 1026.29 810.238C1026.29 806.357 1023.88 804.131 1020.96 804.131C1017.89 804.131 1015.67 806.658 1015.67 810.238C1015.67 813.878 1017.98 816.255 1020.99 816.255ZM1032.51 818V795.436H1034.89V808.403H1037.63L1042.05 802.356H1044.79L1039.64 809.275V809.456L1045.18 818H1042.35L1037.72 810.569H1034.89V818H1032.51ZM1049.61 799.528C1048.62 799.528 1047.89 798.775 1047.89 797.783C1047.89 796.82 1048.62 796.068 1049.61 796.068C1050.63 796.068 1051.35 796.82 1051.35 797.783C1051.35 798.775 1050.63 799.528 1049.61 799.528ZM1048.44 818V804.371H1045.49V802.356H1050.81V818H1048.44ZM1054.66 818V802.356H1057.03V804.642H1057.21C1057.87 803.228 1059.56 801.965 1062 801.965C1065.64 801.965 1067.83 804.702 1067.83 808.162V818H1065.46V808.313C1065.46 805.815 1063.62 804.191 1061.42 804.191C1058.96 804.191 1057.03 806.086 1057.03 808.674V818H1054.66ZM1073.5 824.92V822.723H1080.3C1081.95 822.723 1082.65 821.911 1082.65 820.226V815.473H1082.47C1081.95 816.436 1080.39 818.391 1077.11 818.391C1072.69 818.391 1069.65 814.991 1069.65 810.148C1069.65 805.364 1072.84 801.965 1077.29 801.965C1080.69 801.965 1082.17 804.251 1082.56 804.823H1082.74V802.356H1085.02V820.467C1085.02 823.626 1083.13 824.92 1080.27 824.92H1073.5ZM1077.38 816.225C1080.33 816.225 1082.74 813.999 1082.74 810.148C1082.74 806.868 1080.69 804.131 1077.44 804.131C1074.43 804.131 1072.09 806.477 1072.09 810.148C1072.09 813.728 1074.31 816.225 1077.38 816.225ZM1097.57 799.528C1096.57 799.528 1095.85 798.775 1095.85 797.783C1095.85 796.82 1096.57 796.068 1097.57 796.068C1098.59 796.068 1099.31 796.82 1099.31 797.783C1099.31 798.775 1098.59 799.528 1097.57 799.528ZM1096.39 818V804.371H1093.44V802.356H1098.77V818H1096.39ZM1102.61 818V802.356H1104.99V804.612H1105.17C1105.92 803.168 1107.43 801.965 1109.74 801.965C1112.09 801.965 1113.8 803.108 1114.68 804.823H1114.89C1115.94 802.807 1117.65 801.965 1119.85 801.965C1123.34 801.965 1125.6 804.432 1125.6 807.861V818H1123.22V808.643C1123.22 805.695 1121.75 804.191 1119.43 804.191C1117.23 804.191 1115.31 805.755 1115.31 808.674V818H1112.93V808.192C1112.93 805.695 1111.25 804.191 1109.05 804.191C1106.85 804.191 1104.99 805.936 1104.99 808.583V818H1102.61ZM1135.03 818.391C1130.55 818.391 1127.39 814.991 1127.39 810.208C1127.39 805.394 1130.4 801.965 1134.85 801.965C1138.1 801.965 1139.72 804.07 1140.18 804.883H1140.36V802.356H1142.76V815.172C1142.76 815.653 1143.06 815.894 1143.55 815.894H1144.27V818H1142.73C1141.44 818 1140.48 817.037 1140.45 815.683V815.533H1140.27C1139.88 816.165 1138.43 818.391 1135.03 818.391ZM1135.15 816.255C1138.43 816.255 1140.45 813.517 1140.45 810.238C1140.45 806.357 1138.04 804.131 1135.12 804.131C1132.05 804.131 1129.83 806.658 1129.83 810.238C1129.83 813.878 1132.14 816.255 1135.15 816.255ZM1149.32 824.92V822.723H1156.12C1157.77 822.723 1158.46 821.911 1158.46 820.226V815.473H1158.28C1157.77 816.436 1156.21 818.391 1152.93 818.391C1148.51 818.391 1145.47 814.991 1145.47 810.148C1145.47 805.364 1148.66 801.965 1153.11 801.965C1156.51 801.965 1157.98 804.251 1158.37 804.823H1158.56V802.356H1160.84V820.467C1160.84 823.626 1158.95 824.92 1156.09 824.92H1149.32ZM1153.2 816.225C1156.15 816.225 1158.56 813.999 1158.56 810.148C1158.56 806.868 1156.51 804.131 1153.26 804.131C1150.25 804.131 1147.91 806.477 1147.91 810.148C1147.91 813.728 1150.13 816.225 1153.2 816.225ZM1167.06 799.528C1166.07 799.528 1165.34 798.775 1165.34 797.783C1165.34 796.82 1166.07 796.068 1167.06 796.068C1168.08 796.068 1168.8 796.82 1168.8 797.783C1168.8 798.775 1168.08 799.528 1167.06 799.528ZM1165.88 818V804.371H1162.94V802.356H1168.26V818H1165.88ZM1172.1 818V802.356H1174.48V804.642H1174.66C1175.32 803.228 1177.01 801.965 1179.45 801.965C1183.09 801.965 1185.28 804.702 1185.28 808.162V818H1182.9V808.313C1182.9 805.815 1181.07 804.191 1178.87 804.191C1176.41 804.191 1174.48 806.086 1174.48 808.674V818H1172.1ZM1194.74 818.391C1190.26 818.391 1187.1 814.991 1187.1 810.208C1187.1 805.394 1190.11 801.965 1194.56 801.965C1197.81 801.965 1199.43 804.07 1199.88 804.883H1200.07V802.356H1202.47V815.172C1202.47 815.653 1202.77 815.894 1203.25 815.894H1203.98V818H1202.44C1201.15 818 1200.19 817.037 1200.16 815.683V815.533H1199.98C1199.58 816.165 1198.14 818.391 1194.74 818.391ZM1194.86 816.255C1198.14 816.255 1200.16 813.517 1200.16 810.238C1200.16 806.357 1197.75 804.131 1194.83 804.131C1191.76 804.131 1189.54 806.658 1189.54 810.238C1189.54 813.878 1191.85 816.255 1194.86 816.255ZM1212.58 818C1209.72 818 1207.82 816.706 1207.82 813.547V804.371H1204.88V802.356H1207.97V797.813H1210.2V802.356H1215.01V804.371H1210.2V813.517C1210.2 815.202 1210.89 815.924 1212.55 815.924H1214.8V818H1212.58ZM1220.48 799.528C1219.49 799.528 1218.76 798.775 1218.76 797.783C1218.76 796.82 1219.49 796.068 1220.48 796.068C1221.5 796.068 1222.22 796.82 1222.22 797.783C1222.22 798.775 1221.5 799.528 1220.48 799.528ZM1219.31 818V804.371H1216.36V802.356H1221.68V818H1219.31ZM1232.48 818.391C1227.78 818.391 1224.32 814.931 1224.32 810.178C1224.32 805.454 1227.84 801.965 1232.51 801.965C1237.23 801.965 1240.66 805.485 1240.66 810.178C1240.66 814.871 1237.17 818.391 1232.48 818.391ZM1232.48 816.225C1235.84 816.225 1238.22 813.668 1238.22 810.178C1238.22 806.718 1235.84 804.131 1232.48 804.131C1229.11 804.131 1226.76 806.748 1226.76 810.178C1226.76 813.698 1229.14 816.225 1232.48 816.225ZM1242.75 818V802.356H1245.13V804.642H1245.31C1245.97 803.228 1247.66 801.965 1250.09 801.965C1253.73 801.965 1255.93 804.702 1255.93 808.162V818H1253.55V808.313C1253.55 805.815 1251.72 804.191 1249.52 804.191C1247.05 804.191 1245.13 806.086 1245.13 808.674V818H1242.75ZM1265.28 818V802.356H1267.62V804.973H1267.8C1268.25 803.649 1269.79 801.965 1272.08 801.965H1273.1V804.341H1271.68C1268.83 804.341 1267.65 806.658 1267.65 809.636V818H1265.28ZM1280.83 818.391C1276.08 818.391 1273.1 815.052 1273.1 810.238C1273.1 805.244 1276.53 801.965 1280.68 801.965C1285.41 801.965 1288.11 805.274 1288.11 809.967V810.84H1275.54C1275.57 814.33 1277.61 816.285 1280.86 816.285C1283.06 816.285 1285.08 815.022 1285.59 812.855L1287.9 813.397C1287.03 816.315 1284.44 818.391 1280.83 818.391ZM1275.6 808.914H1285.68C1285.53 805.665 1283.27 804.101 1280.68 804.101C1278.13 804.101 1275.78 805.966 1275.6 808.914ZM1296.65 818.391C1292.16 818.391 1289.01 814.991 1289.01 810.208C1289.01 805.394 1292.01 801.965 1296.47 801.965C1299.72 801.965 1301.34 804.07 1301.79 804.883H1301.97V802.356H1304.38V815.172C1304.38 815.653 1304.68 815.894 1305.16 815.894H1305.88V818H1304.35C1303.06 818 1302.09 817.037 1302.06 815.683V815.533H1301.88C1301.49 816.165 1300.05 818.391 1296.65 818.391ZM1296.77 816.255C1300.05 816.255 1302.06 813.517 1302.06 810.238C1302.06 806.357 1299.66 804.131 1296.74 804.131C1293.67 804.131 1291.44 806.658 1291.44 810.238C1291.44 813.878 1293.76 816.255 1296.77 816.255ZM1307.54 818V815.954H1310.69V797.482H1307.54V795.436H1313.07V815.954H1316.23V818H1307.54ZM1320.51 799.528C1319.51 799.528 1318.79 798.775 1318.79 797.783C1318.79 796.82 1319.51 796.068 1320.51 796.068C1321.53 796.068 1322.25 796.82 1322.25 797.783C1322.25 798.775 1321.53 799.528 1320.51 799.528ZM1319.33 818V804.371H1316.38V802.356H1321.71V818H1319.33ZM1331.75 818C1328.89 818 1327 816.706 1327 813.547V804.371H1324.05V802.356H1327.15V797.813H1329.37V802.356H1334.19V804.371H1329.37V813.517C1329.37 815.202 1330.07 815.924 1331.72 815.924H1333.98V818H1331.75ZM1335.53 824.92V822.753H1337.27C1338.72 822.753 1339.41 822.152 1339.89 820.918L1341.01 818H1340.37L1334.63 802.356H1337.27L1341.85 815.714H1342.03L1346.87 802.356H1349.55L1341.94 821.971C1341.16 824.017 1339.71 824.92 1337.18 824.92H1335.53ZM1357 795.917C1357 797.632 1355.23 798.866 1354.38 802.566H1354.08C1354.59 799.708 1353.87 797.542 1354.11 796.459C1354.32 795.466 1354.86 794.955 1355.86 794.955C1356.7 794.955 1357 795.346 1357 795.917ZM1361.51 795.917C1361.51 797.632 1359.74 798.866 1358.9 802.566H1358.6C1359.11 799.708 1358.38 797.542 1358.63 796.459C1358.84 795.466 1359.38 794.955 1360.37 794.955C1361.21 794.955 1361.51 795.346 1361.51 795.917Z" fill="#8491F7"/>
<path d="M1003.16 447L989.344 389.783H996.455L1008.14 440.951H1008.63L1020.65 389.783H1030.62L1042.64 440.951H1043.13L1054.82 389.783H1061.93L1048.11 447H1037.65L1025.88 395.832H1025.39L1013.62 447H1003.16ZM1084.55 448.063C1071.63 448.063 1063.54 438.99 1063.54 425.912C1063.54 412.343 1072.86 403.434 1084.14 403.434C1096.97 403.434 1104.33 412.425 1104.33 425.176V427.546H1070.16C1070.24 437.028 1075.8 442.341 1084.63 442.341C1090.6 442.341 1096.07 438.908 1097.46 433.023L1103.76 434.494C1101.39 442.423 1094.36 448.063 1084.55 448.063ZM1070.32 422.315H1097.71C1097.3 413.487 1091.17 409.237 1084.14 409.237C1077.19 409.237 1070.82 414.305 1070.32 422.315ZM1110.02 406.458L1111.41 389.783H1118.68L1115.33 406.458H1110.02ZM1123.61 447V404.496H1129.99V411.607H1130.48C1131.7 408.011 1135.87 403.434 1142.08 403.434H1144.86V409.891H1141.02C1133.26 409.891 1130.07 416.185 1130.07 424.277V447H1123.61ZM1167.51 448.063C1154.6 448.063 1146.51 438.99 1146.51 425.912C1146.51 412.343 1155.83 403.434 1167.11 403.434C1179.94 403.434 1187.29 412.425 1187.29 425.176V427.546H1153.13C1153.21 437.028 1158.77 442.341 1167.6 442.341C1173.56 442.341 1179.04 438.908 1180.43 433.023L1186.72 434.494C1184.35 442.423 1177.32 448.063 1167.51 448.063ZM1153.29 422.315H1180.67C1180.27 413.487 1174.14 409.237 1167.11 409.237C1160.16 409.237 1153.78 414.305 1153.29 422.315ZM1227.5 448.063C1217.94 448.063 1211.97 442.831 1210.99 435.23L1216.88 433.758C1217.37 439.48 1221.37 442.423 1227.83 442.423C1234.2 442.423 1237.72 439.317 1237.72 434.985C1237.72 423.051 1212.3 432.124 1212.3 415.286C1212.3 408.093 1218.76 403.434 1227.67 403.434C1235.02 403.434 1242.13 407.684 1243.11 415.367L1237.47 417.002C1236.9 412.016 1232.82 408.992 1227.26 408.992C1221.94 408.992 1218.51 411.607 1218.51 415.286C1218.51 426.075 1244.01 417.084 1244.01 434.658C1244.01 442.668 1237.39 448.063 1227.5 448.063ZM1269.46 447C1261.69 447 1256.54 443.485 1256.54 434.903V409.973H1248.53V404.496H1256.95V392.154H1263V404.496H1276.08V409.973H1263V434.821C1263 439.398 1264.88 441.36 1269.38 441.36H1275.51V447H1269.46ZM1292.56 396.813C1289.86 396.813 1287.9 394.769 1287.9 392.072C1287.9 389.457 1289.86 387.413 1292.56 387.413C1295.34 387.413 1297.3 389.457 1297.3 392.072C1297.3 394.769 1295.34 396.813 1292.56 396.813ZM1289.37 447V409.973H1281.36V404.496H1295.83V447H1289.37ZM1305.86 447V441.442H1314.44V391.255H1305.86V385.697H1320.9V441.442H1329.48V447H1305.86ZM1333.54 447V441.442H1342.13V391.255H1333.54V385.697H1348.58V441.442H1357.17V447H1333.54ZM820.748 541.063C811.511 541.063 807.506 534.851 806.444 533.297H805.953V540H799.741V478.697H806.198V504.362H806.689C807.997 502.155 812.329 496.434 821.238 496.434C833.254 496.434 841.509 505.752 841.509 518.83C841.509 531.826 832.845 541.063 820.748 541.063ZM820.339 535.259C828.513 535.259 834.888 528.802 834.888 518.912C834.888 509.185 828.84 502.319 820.503 502.319C812.492 502.319 805.953 508.367 805.953 518.912C805.953 527.821 811.511 535.259 820.339 535.259ZM863.935 541.063C854.045 541.063 848.078 533.624 848.078 524.225V497.496H854.536V523.979C854.536 530.764 859.522 535.177 865.488 535.177C872.191 535.177 877.422 530.028 877.422 522.999V497.496H883.879V540H877.422V533.788H876.932C875.133 537.63 870.556 541.063 863.935 541.063ZM902.406 489.813C899.708 489.813 897.747 487.769 897.747 485.072C897.747 482.457 899.708 480.413 902.406 480.413C905.185 480.413 907.147 482.457 907.147 485.072C907.147 487.769 905.185 489.813 902.406 489.813ZM899.218 540V502.973H891.208V497.496H905.675V540H899.218ZM915.707 540V534.442H924.289V484.255H915.707V478.697H930.747V534.442H939.329V540H915.707ZM962.126 541.063C950.029 541.063 941.365 531.826 941.365 518.83C941.365 505.752 949.62 496.434 961.636 496.434C970.545 496.434 974.877 502.155 976.185 504.362H976.676V478.697H983.133V540H976.921V533.297H976.43C975.368 534.851 971.363 541.063 962.126 541.063ZM962.535 535.259C971.363 535.259 976.921 527.739 976.921 518.912C976.921 508.367 970.382 502.319 962.371 502.319C954.034 502.319 947.986 509.185 947.986 518.912C947.986 528.802 954.279 535.259 962.535 535.259ZM1001.66 489.813C998.959 489.813 996.998 487.769 996.998 485.072C996.998 482.457 998.959 480.413 1001.66 480.413C1004.44 480.413 1006.4 482.457 1006.4 485.072C1006.4 487.769 1004.44 489.813 1001.66 489.813ZM998.469 540V502.973H990.459V497.496H1004.93V540H998.469ZM1017 540V497.496H1023.46V503.708H1023.95C1025.75 499.867 1030.32 496.434 1036.95 496.434C1046.84 496.434 1052.8 503.872 1052.8 513.272V540H1046.34V513.68C1046.34 506.896 1041.36 502.482 1035.39 502.482C1028.69 502.482 1023.46 507.632 1023.46 514.661V540H1017ZM1069.84 558.8V552.833H1088.31C1092.8 552.833 1094.68 550.626 1094.68 546.049V533.134H1094.19C1092.8 535.75 1088.55 541.063 1079.64 541.063C1067.63 541.063 1059.37 531.826 1059.37 518.666C1059.37 505.67 1068.04 496.434 1080.14 496.434C1089.37 496.434 1093.38 502.646 1094.44 504.199H1094.93V497.496H1101.14V546.703C1101.14 555.285 1095.99 558.8 1088.23 558.8H1069.84ZM1080.38 535.177C1088.39 535.177 1094.93 529.129 1094.93 518.666C1094.93 509.757 1089.37 502.319 1080.54 502.319C1072.37 502.319 1065.99 508.694 1065.99 518.666C1065.99 528.393 1072.04 535.177 1080.38 535.177ZM1146.58 540C1138.81 540 1133.67 536.485 1133.67 527.903V502.973H1125.65V497.496H1134.07V485.154H1140.12V497.496H1153.2V502.973H1140.12V527.821C1140.12 532.398 1142 534.36 1146.5 534.36H1152.63V540H1146.58ZM1160.94 540V478.697H1167.39V503.708H1167.88C1169.68 499.867 1174.42 496.434 1181.04 496.434C1190.93 496.434 1197.06 503.872 1197.06 513.272V540H1190.61V513.68C1190.61 506.896 1185.46 502.482 1179.49 502.482C1172.95 502.482 1167.39 507.305 1167.39 514.171V540H1160.94ZM1215.64 489.813C1212.95 489.813 1210.98 487.769 1210.98 485.072C1210.98 482.457 1212.95 480.413 1215.64 480.413C1218.42 480.413 1220.38 482.457 1220.38 485.072C1220.38 487.769 1218.42 489.813 1215.64 489.813ZM1212.46 540V502.973H1204.45V497.496H1218.91V540H1212.46ZM1245.05 541.063C1235.48 541.063 1229.52 535.831 1228.54 528.23L1234.42 526.758C1234.91 532.48 1238.92 535.423 1245.37 535.423C1251.75 535.423 1255.26 532.317 1255.26 527.985C1255.26 516.051 1229.84 525.124 1229.84 508.286C1229.84 501.093 1236.3 496.434 1245.21 496.434C1252.57 496.434 1259.68 500.684 1260.66 508.367L1255.02 510.002C1254.45 505.016 1250.36 501.992 1244.8 501.992C1239.49 501.992 1236.06 504.607 1236.06 508.286C1236.06 519.075 1261.56 510.084 1261.56 527.658C1261.56 535.668 1254.94 541.063 1245.05 541.063ZM1292.83 509.43C1290.29 509.43 1288.17 507.305 1288.17 504.771C1288.17 502.237 1290.29 500.194 1292.83 500.194C1295.36 500.194 1297.41 502.237 1297.41 504.771C1297.41 507.305 1295.36 509.43 1292.83 509.43ZM1292.83 541.063C1290.29 541.063 1288.17 539.019 1288.17 536.485C1288.17 533.951 1290.29 531.908 1292.83 531.908C1295.36 531.908 1297.41 533.951 1297.41 536.485C1297.41 539.019 1295.36 541.063 1292.83 541.063ZM1306.43 540V534.36H1311.83V488.423H1306.43V482.783H1327.19C1345.34 482.783 1355.88 494.717 1355.88 511.392C1355.88 529.129 1345.34 540 1327.19 540H1306.43ZM1318.45 534.115H1327.19C1340.76 534.115 1349.1 525.778 1349.1 511.392C1349.1 497.578 1340.93 488.75 1327.19 488.75H1318.45V534.115Z" fill="#8491F7"/>
<line x1="308" y1="371.75" x2="1440" y2="371.778" stroke="#8491F7" stroke-opacity="0.8" stroke-width="0.5"/>
<line x1="1359.75" y1="900" x2="1359.75" y2="-98" stroke="#8491F7" stroke-opacity="0.8" stroke-width="0.5"/>
<line x1="791.75" y1="977" x2="791.75" y2="-4" stroke="#8491F7" stroke-opacity="0.8" stroke-width="0.5"/>
<line x1="883.75" y1="928" x2="883.75" y2="558" stroke="#8491F7" stroke-opacity="0.8" stroke-width="0.5"/>
<line x1="185.75" y1="1030" x2="185.75" y2="-36" stroke="#8491F7" stroke-opacity="0.8" stroke-width="0.5"/>
<line x1="45.75" y1="1047" x2="45.75" y2="-19" stroke="#8491F7" stroke-opacity="0.8" stroke-width="0.5"/>
<line x1="308.25" y1="-20" x2="308.25" y2="939" stroke="#8491F7" stroke-opacity="0.8" stroke-width="0.5"/>
<line x1="395.25" y1="-20" x2="395.25" y2="939" stroke="#8491F7" stroke-opacity="0.8" stroke-width="0.5"/>
<line x1="534.25" y1="-20" x2="534.25" y2="939" stroke="#8491F7" stroke-opacity="0.8" stroke-width="0.5"/>
<line x1="1123.25" y1="-8" x2="1123.25" y2="372" stroke="#8491F7" stroke-opacity="0.8" stroke-width="0.5"/>
<line x1="534" y1="86.75" x2="1456" y2="86.75" stroke="#8491F7" stroke-opacity="0.8" stroke-width="0.5"/>
<line x1="792" y1="204.783" x2="1692" y2="204.783" stroke="#8491F7" stroke-opacity="0.8" stroke-width="0.433555"/>
<line x1="46" y1="194.658" x2="534" y2="194.658" stroke="#8491F7" stroke-opacity="0.8" stroke-width="0.433555"/>
<line x1="45.9973" y1="300.533" x2="308.002" y2="300.533" stroke="#8491F7" stroke-opacity="0.8" stroke-width="0.433555"/>
<line x1="45.9983" y1="440.783" x2="307.998" y2="438.783" stroke="#8491F7" stroke-opacity="0.8" stroke-width="0.433555"/>
<path d="M351.049 638.5C355.164 638.5 358.5 635.164 358.5 631.049C358.5 626.934 355.164 623.599 351.049 623.599C346.935 623.599 343.599 626.934 343.599 631.049C343.599 635.164 346.935 638.5 351.049 638.5Z" stroke="#8491F7" stroke-width="5.25926" stroke-linecap="round" stroke-linejoin="round"/>
<path d="M361.568 610.012H340.531C334.722 610.012 330.012 614.722 330.012 620.531V641.568C330.012 647.377 334.722 652.086 340.531 652.086H361.568C367.377 652.086 372.087 647.377 372.087 641.568V620.531C372.087 614.722 367.377 610.012 361.568 610.012Z" stroke="#8491F7" stroke-width="5.25926" stroke-linecap="round" stroke-linejoin="round"/>
<path d="M362.445 623.16C364.381 623.16 365.951 621.591 365.951 619.654C365.951 617.718 364.381 616.148 362.445 616.148C360.508 616.148 358.938 617.718 358.938 619.654C358.938 621.591 360.508 623.16 362.445 623.16Z" fill="#8491F7"/>
<path d="M351.049 708.185C351.049 703.364 355.103 699.354 359.924 699.42C361.612 699.439 363.259 699.946 364.666 700.879C366.073 701.812 367.181 703.131 367.857 704.679H375.592L368.514 711.757C368.057 718.867 364.91 725.536 359.712 730.409C354.514 735.281 347.655 737.991 340.53 737.988C333.518 737.988 331.765 735.358 331.765 735.358C331.765 735.358 338.777 732.728 342.283 727.469C342.283 727.469 328.259 720.457 331.765 701.173C331.765 701.173 340.53 709.938 351.049 711.691V708.185Z" stroke="#8491F7" stroke-width="5.25926" stroke-linecap="round" stroke-linejoin="round"/>
<g filter="url(#filter0_d_78_117)">
<g clip-path="url(#clip1_78_117)">
<rect x="575" y="142" width="175.099" height="175.099" rx="24.48" fill="white"/>
<rect x="575.631" y="142.631" width="173.838" height="173.838" rx="23.8495" stroke="#8491F7" stroke-width="1.26104"/>
<path d="M594.159 263.449V262.513H595.054V254.895H594.159V253.959H597.603C600.612 253.959 602.361 255.939 602.361 258.704C602.361 261.646 600.612 263.449 597.603 263.449H594.159ZM596.152 262.473H597.603C599.853 262.473 601.236 261.09 601.236 258.704C601.236 256.413 599.88 254.949 597.603 254.949H596.152V262.473ZM607.395 263.625C605.28 263.625 603.721 262.066 603.721 259.924C603.721 257.796 605.307 256.223 607.408 256.223C609.537 256.223 611.082 257.809 611.082 259.924C611.082 262.039 609.51 263.625 607.395 263.625ZM607.395 262.649C608.913 262.649 609.984 261.497 609.984 259.924C609.984 258.365 608.913 257.199 607.395 257.199C605.877 257.199 604.819 258.379 604.819 259.924C604.819 261.51 605.89 262.649 607.395 262.649ZM616.367 266.567V265.591H617.153C617.804 265.591 618.116 265.319 618.333 264.764L618.834 263.449H618.549L615.96 256.4H617.153L619.214 262.418H619.295L621.478 256.4H622.684L619.254 265.238C618.902 266.16 618.251 266.567 617.112 266.567H616.367ZM627.305 263.625C625.191 263.625 623.632 262.066 623.632 259.924C623.632 257.796 625.218 256.223 627.319 256.223C629.447 256.223 630.993 257.809 630.993 259.924C630.993 262.039 629.42 263.625 627.305 263.625ZM627.305 262.649C628.824 262.649 629.894 261.497 629.894 259.924C629.894 258.365 628.824 257.199 627.305 257.199C625.787 257.199 624.73 258.379 624.73 259.924C624.73 261.51 625.801 262.649 627.305 262.649ZM635.379 263.625C633.739 263.625 632.749 262.391 632.749 260.832V256.4H633.82V260.792C633.82 261.917 634.647 262.649 635.637 262.649C636.748 262.649 637.616 261.795 637.616 260.629V256.4H638.687V263.449H637.616V262.418H637.534C637.236 263.056 636.477 263.625 635.379 263.625ZM644.786 263.449V253.282H645.857V257.43H645.938C646.236 256.793 647.023 256.223 648.121 256.223C649.761 256.223 650.778 257.457 650.778 259.016V263.449H649.707V259.084C649.707 257.959 648.853 257.226 647.863 257.226C646.779 257.226 645.857 258.026 645.857 259.165V263.449H644.786ZM655.987 263.625C653.967 263.625 652.544 262.093 652.544 259.938C652.544 257.769 653.9 256.223 655.906 256.223C657.37 256.223 658.102 257.172 658.305 257.538H658.387V256.4H659.471V262.174C659.471 262.391 659.607 262.5 659.824 262.5H660.149V263.449H659.458C658.875 263.449 658.441 263.015 658.427 262.405V262.337H658.346C658.17 262.622 657.519 263.625 655.987 263.625ZM656.042 262.662C657.519 262.662 658.427 261.429 658.427 259.951C658.427 258.203 657.343 257.199 656.028 257.199C654.645 257.199 653.642 258.338 653.642 259.951C653.642 261.592 654.686 262.662 656.042 262.662ZM663.998 263.449L661.368 256.4H662.52L664.648 262.446H664.73L666.844 256.4H668.024L665.407 263.449H663.998ZM672.457 263.625C670.315 263.625 668.973 262.12 668.973 259.951C668.973 257.701 670.518 256.223 672.389 256.223C674.517 256.223 675.737 257.715 675.737 259.829V260.222H670.071C670.084 261.795 671.006 262.676 672.47 262.676C673.46 262.676 674.368 262.107 674.599 261.131L675.642 261.375C675.249 262.69 674.084 263.625 672.457 263.625ZM670.098 259.355H674.639C674.572 257.891 673.555 257.186 672.389 257.186C671.237 257.186 670.179 258.026 670.098 259.355ZM684.331 263.625C682.311 263.625 680.887 262.093 680.887 259.938C680.887 257.769 682.243 256.223 684.249 256.223C685.713 256.223 686.445 257.172 686.649 257.538H686.73V256.4H687.815V262.174C687.815 262.391 687.95 262.5 688.167 262.5H688.492V263.449H687.801C687.218 263.449 686.784 263.015 686.771 262.405V262.337H686.689C686.513 262.622 685.862 263.625 684.331 263.625ZM684.385 262.662C685.862 262.662 686.771 261.429 686.771 259.951C686.771 258.203 685.686 257.199 684.371 257.199C682.989 257.199 681.985 258.338 681.985 259.951C681.985 261.592 683.029 262.662 684.385 262.662ZM594.295 282.567V272.4H595.325V273.511H595.406C595.583 273.254 596.247 272.223 597.779 272.223C599.785 272.223 601.222 273.755 601.222 275.911C601.222 278.093 599.853 279.625 597.86 279.625C596.383 279.625 595.678 278.744 595.447 278.31H595.366V282.567H594.295ZM597.738 278.649C599.121 278.649 600.124 277.524 600.124 275.911C600.124 274.257 599.067 273.199 597.711 273.199C596.247 273.199 595.325 274.433 595.325 275.911C595.325 277.646 596.41 278.649 597.738 278.649ZM603.125 279.449V272.4H604.182V273.579H604.264C604.467 272.982 605.158 272.223 606.189 272.223H606.649V273.294H606.012C604.724 273.294 604.196 274.338 604.196 275.68V279.449H603.125ZM611.274 279.625C609.159 279.625 607.6 278.066 607.6 275.924C607.6 273.796 609.186 272.223 611.287 272.223C613.415 272.223 614.961 273.809 614.961 275.924C614.961 278.039 613.388 279.625 611.274 279.625ZM611.274 278.649C612.792 278.649 613.863 277.497 613.863 275.924C613.863 274.365 612.792 273.199 611.274 273.199C609.755 273.199 608.698 274.379 608.698 275.924C608.698 277.51 609.769 278.649 611.274 278.649ZM618.48 271.125C618.032 271.125 617.707 270.786 617.707 270.339C617.707 269.905 618.032 269.566 618.48 269.566C618.941 269.566 619.266 269.905 619.266 270.339C619.266 270.786 618.941 271.125 618.48 271.125ZM615.836 282.567V281.618H616.894C617.639 281.618 617.951 281.306 617.951 280.547V273.308H616.419V272.4H619.022V280.56C619.022 281.984 618.168 282.567 616.88 282.567H615.836ZM624.508 279.625C622.366 279.625 621.024 278.12 621.024 275.951C621.024 273.701 622.569 272.223 624.44 272.223C626.568 272.223 627.788 273.715 627.788 275.829V276.222H622.122C622.135 277.795 623.057 278.676 624.521 278.676C625.511 278.676 626.419 278.107 626.649 277.131L627.693 277.375C627.3 278.69 626.134 279.625 624.508 279.625ZM622.149 275.355H626.69C626.622 273.891 625.606 273.186 624.44 273.186C623.287 273.186 622.23 274.026 622.149 275.355ZM632.758 279.625C630.63 279.625 629.139 278.012 629.139 275.924C629.139 273.837 630.671 272.223 632.745 272.223C634.276 272.223 635.632 273.145 636.012 274.718L634.954 274.962C634.764 273.904 633.87 273.199 632.772 273.199C631.267 273.199 630.25 274.392 630.25 275.924C630.25 277.51 631.321 278.649 632.799 278.649C633.897 278.649 634.792 277.944 634.981 276.887L636.039 277.131C635.659 278.703 634.29 279.625 632.758 279.625ZM640.734 279.449C639.446 279.449 638.592 278.866 638.592 277.442V273.308H637.264V272.4H638.66V270.353H639.663V272.4H641.832V273.308H639.663V277.429C639.663 278.188 639.975 278.513 640.721 278.513H641.737V279.449H640.734ZM649.043 271.125C648.596 271.125 648.27 270.786 648.27 270.339C648.27 269.905 648.596 269.566 649.043 269.566C649.504 269.566 649.829 269.905 649.829 270.339C649.829 270.786 649.504 271.125 649.043 271.125ZM648.514 279.449V273.308H647.186V272.4H649.585V279.449H648.514ZM652.266 279.449V272.4H653.337V273.43H653.418C653.716 272.793 654.475 272.223 655.573 272.223C657.214 272.223 658.203 273.457 658.203 275.016V279.449H657.132V275.084C657.132 273.959 656.305 273.226 655.316 273.226C654.204 273.226 653.337 274.081 653.337 275.246V279.449H652.266ZM664.312 279.449V272.4H665.383V273.416H665.465C665.804 272.766 666.481 272.223 667.525 272.223C668.583 272.223 669.355 272.738 669.748 273.511H669.843C670.318 272.603 671.09 272.223 672.08 272.223C673.653 272.223 674.669 273.335 674.669 274.88V279.449H673.598V275.233C673.598 273.904 672.934 273.226 671.89 273.226C670.901 273.226 670.033 273.931 670.033 275.246V279.449H668.962V275.029C668.962 273.904 668.203 273.226 667.213 273.226C666.224 273.226 665.383 274.013 665.383 275.206V279.449H664.312ZM678.419 271.125C677.971 271.125 677.646 270.786 677.646 270.339C677.646 269.905 677.971 269.566 678.419 269.566C678.88 269.566 679.205 269.905 679.205 270.339C679.205 270.786 678.88 271.125 678.419 271.125ZM677.89 279.449V273.308H676.562V272.4H678.961V279.449H677.89ZM681.641 279.449V272.4H682.712V273.43H682.794C683.092 272.793 683.851 272.223 684.949 272.223C686.589 272.223 687.579 273.457 687.579 275.016V279.449H686.508V275.084C686.508 273.959 685.681 273.226 684.692 273.226C683.58 273.226 682.712 274.081 682.712 275.246V279.449H681.641ZM692.79 279.625C690.784 279.625 689.347 278.093 689.347 275.938C689.347 273.769 690.716 272.223 692.709 272.223C694.186 272.223 694.905 273.172 695.122 273.538H695.203V269.282H696.274V279.449H695.244V278.337H695.162C694.986 278.595 694.322 279.625 692.79 279.625ZM692.858 278.662C694.322 278.662 695.244 277.415 695.244 275.951C695.244 274.203 694.159 273.199 692.831 273.199C691.448 273.199 690.445 274.338 690.445 275.951C690.445 277.592 691.489 278.662 692.858 278.662ZM700.268 277.063V275.748C700.268 274.975 700.539 274.636 701.095 274.243L701.759 273.782C702.315 273.389 702.64 273.077 702.64 272.359C702.64 271.451 702.044 270.759 701.013 270.759C699.956 270.759 699.305 271.505 699.305 272.467H698.302C698.302 271.152 699.197 269.783 701.013 269.783C702.694 269.783 703.752 270.936 703.752 272.318C703.752 273.471 703.142 274.013 702.559 274.419L701.759 274.975C701.434 275.192 701.325 275.355 701.325 275.748V277.063H700.268ZM700.824 279.625C700.403 279.625 700.051 279.286 700.051 278.866C700.051 278.446 700.403 278.107 700.824 278.107C701.244 278.107 701.583 278.446 701.583 278.866C701.583 279.286 701.244 279.625 700.824 279.625ZM594.43 295.449V285.959H595.528V294.459H599.622V295.449H594.43ZM604.2 295.625C602.058 295.625 600.716 294.12 600.716 291.951C600.716 289.701 602.261 288.223 604.132 288.223C606.26 288.223 607.48 289.715 607.48 291.829V292.222H601.814C601.828 293.795 602.749 294.676 604.213 294.676C605.203 294.676 606.111 294.107 606.342 293.131L607.386 293.375C606.992 294.69 605.827 295.625 604.2 295.625ZM601.841 291.355H606.382C606.315 289.891 605.298 289.186 604.132 289.186C602.98 289.186 601.922 290.026 601.841 291.355ZM612.166 295.449C610.878 295.449 610.024 294.866 610.024 293.442V289.308H608.696V288.4H610.092V286.353H611.095V288.4H613.264V289.308H611.095V293.429C611.095 294.188 611.407 294.513 612.152 294.513H613.169V295.449H612.166ZM617.556 295.625C615.97 295.625 614.981 294.757 614.818 293.497L615.794 293.253C615.875 294.202 616.54 294.69 617.611 294.69C618.668 294.69 619.251 294.174 619.251 293.456C619.251 291.477 615.035 292.982 615.035 290.189C615.035 288.996 616.106 288.223 617.583 288.223C618.803 288.223 619.983 288.928 620.146 290.203L619.21 290.474C619.115 289.647 618.437 289.145 617.516 289.145C616.635 289.145 616.065 289.579 616.065 290.189C616.065 291.978 620.295 290.487 620.295 293.402C620.295 294.73 619.197 295.625 617.556 295.625ZM629.277 295.625C627.148 295.625 625.657 294.012 625.657 291.924C625.657 289.837 627.189 288.223 629.263 288.223C630.795 288.223 632.15 289.145 632.53 290.718L631.473 290.962C631.283 289.904 630.388 289.199 629.29 289.199C627.785 289.199 626.769 290.392 626.769 291.924C626.769 293.51 627.84 294.649 629.317 294.649C630.415 294.649 631.31 293.944 631.5 292.887L632.557 293.131C632.178 294.703 630.808 295.625 629.277 295.625ZM637.591 295.625C635.477 295.625 633.918 294.066 633.918 291.924C633.918 289.796 635.504 288.223 637.605 288.223C639.733 288.223 641.279 289.809 641.279 291.924C641.279 294.039 639.706 295.625 637.591 295.625ZM637.591 294.649C639.11 294.649 640.181 293.497 640.181 291.924C640.181 290.365 639.11 289.199 637.591 289.199C636.073 289.199 635.016 290.379 635.016 291.924C635.016 293.51 636.087 294.649 637.591 294.649ZM643.171 295.449V288.4H644.242V289.43H644.323C644.621 288.793 645.38 288.223 646.479 288.223C648.119 288.223 649.108 289.457 649.108 291.016V295.449H648.037V291.084C648.037 289.959 647.211 289.226 646.221 289.226C645.109 289.226 644.242 290.081 644.242 291.246V295.449H643.171ZM651.418 295.449V288.4H652.489V289.43H652.571C652.869 288.793 653.628 288.223 654.726 288.223C656.366 288.223 657.356 289.457 657.356 291.016V295.449H656.285V291.084C656.285 289.959 655.458 289.226 654.468 289.226C653.357 289.226 652.489 290.081 652.489 291.246V295.449H651.418ZM662.607 295.625C660.466 295.625 659.124 294.12 659.124 291.951C659.124 289.701 660.669 288.223 662.54 288.223C664.668 288.223 665.888 289.715 665.888 291.829V292.222H660.222C660.235 293.795 661.157 294.676 662.621 294.676C663.611 294.676 664.519 294.107 664.749 293.131L665.793 293.375C665.4 294.69 664.234 295.625 662.607 295.625ZM660.249 291.355H664.79C664.722 289.891 663.706 289.186 662.54 289.186C661.387 289.186 660.33 290.026 660.249 291.355ZM670.858 295.625C668.73 295.625 667.239 294.012 667.239 291.924C667.239 289.837 668.771 288.223 670.845 288.223C672.376 288.223 673.732 289.145 674.112 290.718L673.054 290.962C672.864 289.904 671.97 289.199 670.872 289.199C669.367 289.199 668.35 290.392 668.35 291.924C668.35 293.51 669.421 294.649 670.899 294.649C671.997 294.649 672.892 293.944 673.081 292.887L674.139 293.131C673.759 294.703 672.39 295.625 670.858 295.625ZM678.834 295.449C677.546 295.449 676.692 294.866 676.692 293.442V289.308H675.364V288.4H676.76V286.353H677.763V288.4H679.932V289.308H677.763V293.429C677.763 294.188 678.075 294.513 678.821 294.513H679.837V295.449H678.834ZM682.327 293.063L682.232 285.959H683.357L683.262 293.063H682.327ZM682.801 295.625C682.381 295.625 682.029 295.286 682.029 294.866C682.029 294.446 682.381 294.107 682.801 294.107C683.221 294.107 683.56 294.446 683.56 294.866C683.56 295.286 683.221 295.625 682.801 295.625Z" fill="#8491F7"/>
<path d="M594.035 241.114V233.207H596.419L598 239.781H598.102L599.683 233.207H602.056V241.114H600.734V234.551H600.632L599.062 241.114H597.04L595.47 234.551H595.368V241.114H594.035ZM606.483 241.261C604.675 241.261 603.466 239.973 603.466 238.166C603.466 236.302 604.833 235.048 606.426 235.048C608.234 235.048 609.329 236.358 609.329 238.121V238.493H604.845C604.856 239.488 605.5 240.12 606.471 240.12C607.127 240.12 607.748 239.781 607.963 239.126L609.183 239.42C608.799 240.651 607.714 241.261 606.483 241.261ZM604.856 237.522H607.974C607.906 236.72 607.24 236.211 606.426 236.211C605.579 236.211 604.935 236.81 604.856 237.522ZM612.635 241.261C611.347 241.261 610.387 240.64 610.229 239.431L611.494 239.149C611.619 239.77 612.048 240.064 612.669 240.064C613.313 240.064 613.652 239.826 613.652 239.431C613.652 238.234 610.444 239.239 610.444 236.833C610.444 235.827 611.28 235.048 612.624 235.048C613.765 235.048 614.657 235.624 614.872 236.686L613.686 237.014C613.573 236.494 613.189 236.257 612.624 236.257C612.059 236.257 611.72 236.505 611.72 236.855C611.72 237.962 615.019 236.923 615.019 239.307C615.019 240.47 614.093 241.261 612.635 241.261ZM618.383 241.261C617.095 241.261 616.135 240.64 615.977 239.431L617.242 239.149C617.366 239.77 617.795 240.064 618.417 240.064C619.061 240.064 619.4 239.826 619.4 239.431C619.4 238.234 616.191 239.239 616.191 236.833C616.191 235.827 617.027 235.048 618.372 235.048C619.513 235.048 620.405 235.624 620.62 236.686L619.434 237.014C619.321 236.494 618.936 236.257 618.372 236.257C617.807 236.257 617.468 236.505 617.468 236.855C617.468 237.962 620.767 236.923 620.767 239.307C620.767 240.47 619.84 241.261 618.383 241.261ZM624.515 241.261C622.922 241.261 621.724 239.951 621.724 238.155C621.724 236.358 622.899 235.048 624.481 235.048C625.475 235.048 626.017 235.556 626.277 235.918H626.379V235.195H627.712V239.725C627.712 239.883 627.802 239.985 627.983 239.985H628.243V241.114H627.237C626.706 241.114 626.435 240.753 626.39 240.369H626.288C626.062 240.73 625.543 241.261 624.515 241.261ZM624.752 239.973C625.757 239.973 626.401 239.171 626.401 238.166C626.401 236.991 625.644 236.324 624.741 236.324C623.792 236.324 623.08 237.07 623.08 238.166C623.08 239.284 623.814 239.973 624.752 239.973ZM630.551 243.713V242.481H633.172C633.578 242.481 633.748 242.278 633.748 241.849V240.403H633.646C633.386 240.775 632.878 241.261 631.873 241.261C630.291 241.261 629.094 239.951 629.094 238.143C629.094 236.381 630.269 235.048 631.861 235.048C632.935 235.048 633.42 235.647 633.669 235.94H633.771V235.195H635.081V241.939C635.081 243.182 634.29 243.713 633.183 243.713H630.551ZM632.11 240.007C633.059 240.007 633.782 239.262 633.782 238.155C633.782 237.081 633.093 236.302 632.121 236.302C631.184 236.302 630.449 237.036 630.449 238.155C630.449 239.25 631.172 240.007 632.11 240.007ZM639.391 241.261C637.584 241.261 636.375 239.973 636.375 238.166C636.375 236.302 637.742 235.048 639.335 235.048C641.142 235.048 642.238 236.358 642.238 238.121V238.493H637.753C637.764 239.488 638.408 240.12 639.38 240.12C640.035 240.12 640.656 239.781 640.871 239.126L642.091 239.42C641.707 240.651 640.622 241.261 639.391 241.261ZM637.764 237.522H640.882C640.814 236.72 640.148 236.211 639.335 236.211C638.487 236.211 637.843 236.81 637.764 237.522Z" fill="#8491F7"/>
<path d="M726.504 164.411L703.99 170.752C703.798 170.804 703.627 170.915 703.501 171.068C703.374 171.221 703.297 171.409 703.281 171.607C703.266 171.805 703.311 172.003 703.412 172.174C703.513 172.346 703.664 172.482 703.845 172.564L714.184 177.456C714.386 177.549 714.549 177.712 714.643 177.915L719.535 188.254C719.617 188.434 719.753 188.586 719.924 188.686C720.095 188.787 720.293 188.833 720.491 188.817C720.689 188.801 720.878 188.725 721.031 188.598C721.184 188.471 721.294 188.3 721.346 188.109L727.687 165.595C727.736 165.43 727.739 165.256 727.696 165.09C727.654 164.924 727.567 164.773 727.446 164.652C727.325 164.531 727.174 164.445 727.008 164.402C726.842 164.36 726.668 164.363 726.504 164.411V164.411Z" stroke="#8491F7" stroke-width="2.8988" stroke-linecap="round" stroke-linejoin="round"/>
<path d="M714.498 177.601L719.958 172.141" stroke="#8491F7" stroke-width="2.8988" stroke-linecap="round" stroke-linejoin="round"/>
</g>
</g>
</g>
<defs>
<filter id="filter0_d_78_117" x="575" y="142" width="184.099" height="184.099" filterUnits="userSpaceOnUse" color-interpolation-filters="sRGB">
<feFlood flood-opacity="0" result="BackgroundImageFix"/>
<feColorMatrix in="SourceAlpha" type="matrix" values="0 0 0 0 0 0 0 0 0 0 0 0 0 0 0 0 0 0 127 0" result="hardAlpha"/>
<feOffset dx="5" dy="5"/>
<feGaussianBlur stdDeviation="2"/>
<feComposite in2="hardAlpha" operator="out"/>
<feColorMatrix type="matrix" values="0 0 0 0 0.517647 0 0 0 0 0.568627 0 0 0 0 0.968627 0 0 0 0.4 0"/>
<feBlend mode="normal" in2="BackgroundImageFix" result="effect1_dropShadow_78_117"/>
<feBlend mode="normal" in="SourceGraphic" in2="effect1_dropShadow_78_117" result="shape"/>
</filter>
<linearGradient id="paint0_linear_78_117" x1="-471.727" y1="465.001" x2="528.075" y2="507.47" gradientUnits="userSpaceOnUse">
<stop stop-color="#D7E8F4"/>
<stop offset="0.384125" stop-color="#8491F7"/>
</linearGradient>
<linearGradient id="paint1_linear_78_117" x1="1103.51" y1="144" x2="1303.9" y2="144" gradientUnits="userSpaceOnUse">
<stop stop-color="#D7E8F4"/>
<stop offset="1" stop-color="#8491F7"/>
</linearGradient>
<linearGradient id="paint2_linear_78_117" x1="1240.39" y1="144" x2="1358.85" y2="149.032" gradientUnits="userSpaceOnUse">
<stop stop-color="#D7E8F4"/>
<stop offset="0.384125" stop-color="#8491F7"/>
</linearGradient>
<clipPath id="clip0_78_117">
<rect width="1440" height="900" fill="white"/>
</clipPath>
<clipPath id="clip1_78_117">
<rect x="575" y="142" width="175.099" height="175.099" rx="24.48" fill="white"/>
</clipPath>
</defs>
</svg>
