<svg width="237" height="123" viewBox="0 0 237 123" fill="none" xmlns="http://www.w3.org/2000/svg">
<path d="M43.4651 46.0505V40.8169H46.4951C47.5969 40.8169 48.2265 40.4628 48.6593 39.361L49.5644 37H48.4626L41.537 16.2626H47.7543L51.9647 31.491H52.3976L56.608 16.2626H62.904L53.8142 41.84C52.7517 44.7913 50.5875 46.0505 46.8886 46.0505H43.4651ZM73.7926 37.5115C67.2998 37.5115 62.7352 32.7896 62.7352 26.651C62.7352 20.473 67.3392 15.751 73.7926 15.751C80.2853 15.751 84.8106 20.5124 84.8106 26.651C84.8106 32.7896 80.246 37.5115 73.7926 37.5115ZM73.7926 32.0419C76.8619 32.0419 78.9868 29.7203 78.9868 26.651C78.9868 23.5423 76.8619 21.2207 73.7926 21.2207C70.7233 21.2207 68.559 23.5423 68.559 26.651C68.559 29.7203 70.7233 32.0419 73.7926 32.0419ZM93.8555 37.5115C89.4877 37.5115 86.5758 34.2455 86.5758 30.1925V16.2626H92.3209V28.343C92.3209 30.4286 93.7375 31.9632 95.7443 31.9632C97.8299 31.9632 99.2858 30.3892 99.2858 28.3037V16.2626H105.031V37H99.2858V35.1112H98.8923C97.9479 36.4491 96.2559 37.5115 93.8555 37.5115ZM107.799 37V16.2626H113.465V19.0171H113.859C114.764 17.2463 116.81 15.751 119.171 15.751H120.823V21.4568H118.699C115.551 21.4568 113.504 23.4243 113.504 27.2806V37H107.799ZM11.3106 75.5115C5.95904 75.5115 1.63054 70.8289 1.63054 64.6116C1.63054 58.5517 5.64424 53.751 10.9958 53.751C14.1832 53.751 15.9146 55.1676 16.8983 56.3875H17.3312V45.4875H23.0763V75H17.3312V73.0719H16.8983C15.9146 74.3704 14.2619 75.5115 11.3106 75.5115ZM12.4518 70.0813C15.4424 70.0813 17.4099 67.5629 17.4099 64.651C17.4099 61.2275 15.1276 59.2207 12.4124 59.2207C9.61859 59.2207 7.45434 61.3849 7.45434 64.651C7.45434 67.917 9.69729 70.0813 12.4518 70.0813ZM35.585 75.5115C29.2496 75.5115 24.8424 70.9076 24.8424 64.651C24.8424 58.1582 29.6431 53.751 35.4276 53.751C41.8023 53.751 45.7766 58.473 45.7766 64.6116V66.0676H30.7449C30.7843 68.7827 32.7911 70.4354 35.5063 70.4354C37.3951 70.4354 39.2052 69.6878 39.9922 67.9564L45.1077 69.1369C43.6124 73.7802 39.5987 75.5115 35.585 75.5115ZM30.7843 62.2506H39.9922C39.7167 60.1651 37.8673 58.5124 35.4276 58.5124C32.7518 58.5124 31.0597 60.4012 30.7843 62.2506ZM55.6362 75.5115C51.229 75.5115 47.5301 73.3867 46.9399 68.7827L51.9767 67.8777C52.2128 69.8058 53.9442 70.6715 55.9117 70.6715C57.6431 70.6715 58.5088 70.0026 58.5088 69.0188C58.5088 65.5954 47.6482 68.4679 47.6482 60.2044C47.6482 56.6236 50.9536 53.751 55.5575 53.751C59.886 53.751 62.916 55.7185 63.821 59.4568L58.8629 60.7947C58.4301 59.3387 57.1709 58.473 55.6362 58.473C54.259 58.473 53.3146 59.0633 53.3146 59.9683C53.3146 63.195 64.2932 60.5192 64.2932 68.4679C64.2932 72.639 61.0272 75.5115 55.6362 75.5115ZM72.035 51.5081C70.0675 51.5081 68.6116 50.0521 68.6116 48.1633C68.6116 46.3139 70.0675 44.8579 72.035 44.8579C73.9632 44.8579 75.4191 46.3139 75.4191 48.1633C75.4191 50.0521 73.9632 51.5081 72.035 51.5081ZM69.0838 75V59.3387H65.6603V54.2626H74.7895V75H69.0838ZM82.5326 84.0505V78.7776H91.7798C92.7242 78.7776 93.0784 78.3054 93.0784 77.361V73.0719H92.6455C91.5437 74.4098 89.9697 75.5115 87.0578 75.5115C81.7062 75.5115 77.3777 70.8289 77.3777 64.6116C77.3777 58.5517 81.4308 53.751 86.7824 53.751C90.0484 53.751 91.5831 55.207 92.6849 56.3875H93.1177V54.2626H98.8235V77.6364C98.8235 82.1617 96.069 84.0505 91.8979 84.0505H82.5326ZM88.199 70.0813C91.1502 70.0813 93.1571 67.6416 93.1571 64.6116C93.1571 61.3062 90.9535 59.2207 88.199 59.2207C85.4445 59.2207 83.2409 61.3849 83.2409 64.6116C83.2409 67.8777 85.4445 70.0813 88.199 70.0813ZM101.573 75V54.2626H107.318V56.1514H107.712C108.656 54.8135 110.348 53.751 112.749 53.751C117.117 53.751 120.029 57.0171 120.029 61.0701V75H114.283V62.9196C114.283 60.834 112.867 59.2994 110.86 59.2994C108.774 59.2994 107.318 60.8734 107.318 62.9589V75H101.573ZM63.6566 82.1103C65.7028 82.1103 67.08 82.8579 67.7096 83.4875L65.4273 86.7929H65.2306C64.601 85.7698 62.9876 83.0547 61.2169 83.0547C59.3281 83.0547 58.0295 84.8254 57.3999 87.9341L56.0227 94.5449L55.9833 94.7023H61.5317L61.1382 96.2763H55.6292L51.8516 112.961C50.7891 117.604 46.7361 122.995 42.7224 122.995C41.2271 122.995 39.6924 122.365 39.1809 121.814L40.7942 119.414H40.991C41.896 121.263 43.0372 122.05 44.139 122.05C45.5556 122.05 46.8541 120.634 47.3657 118.391L52.2844 96.2763H48.1527L48.5462 94.7023H52.6386L53.3075 91.5149C54.7635 84.4713 60.1544 82.1103 63.6566 82.1103ZM60.1729 113.748L59.9761 113.512L64.1866 97.9683C64.8949 95.3319 62.3765 95.5286 60.1335 98.0864L59.8581 97.8109C61.3927 95.686 63.3602 94.112 65.249 94.112C67.1772 94.112 67.7281 95.3712 67.7281 96.5124C67.7281 97.1026 67.5313 97.929 67.1772 99.0308L65.2097 105.484H65.3671C67.4526 100.959 70.7974 94.112 74.693 94.112C75.9129 94.112 76.8573 94.781 77.3688 95.2925L75.0472 98.3225H74.8111C74.2602 97.0239 73.4732 96.6304 72.6862 96.6304C69.7349 96.6304 64.9342 106.153 63.2422 113C62.101 113.039 61.2353 113.354 60.1729 113.748ZM89.1744 97.0633C89.1744 100.683 84.177 103.281 77.9203 103.635C77.7629 104.422 77.6842 105.248 77.6842 106.114C77.6842 109.616 79.0615 111.465 80.9896 111.465C82.5636 111.465 84.4918 110.246 86.3019 107.806L86.6167 108.042C85.8297 109.734 83.0358 113.59 79.2189 113.59C75.6774 113.59 73.946 110.521 73.946 107.609C73.946 100.762 78.5499 94.112 85.1214 94.112C87.443 94.112 89.1744 95.4106 89.1744 97.0633ZM84.6492 94.6236C82.7604 94.6236 79.0221 98.1257 77.9597 103.281C82.9178 102.572 85.751 99.7784 85.751 96.0402C85.751 95.0958 85.3181 94.6236 84.6492 94.6236ZM89.5338 98.0864L89.2584 97.8109C90.793 95.686 92.7605 94.112 94.6493 94.112C96.42 94.112 97.089 95.0171 97.089 96.3943C97.089 97.142 96.8922 98.047 96.5774 99.0308L94.6886 105.051H94.8854C98.7023 97.6535 101.85 94.112 104.841 94.112C106.376 94.112 107.595 94.899 107.595 96.7091C107.595 97.2207 107.517 97.7716 107.32 98.4405L103.897 109.852C103.66 110.6 103.7 111.269 104.369 111.269C105.116 111.269 106.572 110.324 107.989 108.672L108.343 108.986C107.045 111.151 104.369 113.59 102.48 113.59C100.394 113.59 99.9222 111.741 100.63 109.459L103.936 98.716C104.447 97.0633 104.093 96.2763 103.149 96.2763C100.945 96.2763 95.3182 102.218 92.6425 113C91.5013 113.039 90.6356 113.354 89.5732 113.748L89.3764 113.512L93.5869 97.9683C94.2951 95.3319 91.7768 95.5286 89.5338 98.0864ZM119.696 107.255C119.696 111.347 117.099 113.59 112.653 113.59C110.174 113.59 108.049 112.449 107.341 111.938L109.19 109.38H109.387C111.315 110.914 114.266 111.898 116.194 111.898C117.454 111.898 118.398 111.111 118.398 110.049C118.398 108.475 116.47 106.35 114.148 104.618C111.826 102.887 110.567 101.667 110.567 99.7391C110.567 96.4337 112.81 94.112 116.903 94.112C119.185 94.112 121.113 95.0171 121.782 95.4499L119.933 98.0077H119.736C118.044 96.5517 115.407 95.8434 113.637 95.8434C112.495 95.8434 111.708 96.473 111.708 97.3387C111.708 98.5586 114.463 100.683 116.273 102.021C118.752 103.871 119.696 105.563 119.696 107.255Z" fill="url(#paint0_linear_84_420)"/>
<path d="M187.055 29.0212V92.9788M187.055 29.0212C187.055 17.6268 196.293 8.38965 207.687 8.38965C219.081 8.38965 228.318 17.6267 228.318 29.0211M187.055 29.0212C187.055 40.4157 177.819 49.6527 166.424 49.6527C155.03 49.6527 145.793 40.4157 145.793 29.0212M184.993 49.6525H209.75M187.056 92.9785C187.056 104.373 177.819 113.61 166.424 113.61C155.03 113.61 145.793 104.373 145.793 92.9785C145.793 81.584 155.03 72.347 166.424 72.347C177.819 72.347 187.056 81.584 187.056 92.9785Z" stroke="url(#paint1_linear_84_420)" stroke-width="16.5052"/>
<defs>
<linearGradient id="paint0_linear_84_420" x1="-19.4948" y1="61" x2="180.904" y2="61" gradientUnits="userSpaceOnUse">
<stop stop-color="#D7E8F4"/>
<stop offset="1" stop-color="#8491F7"/>
</linearGradient>
<linearGradient id="paint1_linear_84_420" x1="117.387" y1="60.9999" x2="235.855" y2="66.0321" gradientUnits="userSpaceOnUse">
<stop stop-color="#D7E8F4"/>
<stop offset="0.384125" stop-color="#8491F7"/>
</linearGradient>
</defs>
</svg>
